<?xml version="1.0" encoding="UTF-8" standalone="no"?>
<!DOCTYPE svg PUBLIC "-//W3C//DTD SVG 1.1//EN"
"http://www.w3.org/Graphics/SVG/1.1/DTD/svg11.dtd">


<!-- Page 1 -->
<svg x="0" y="0" width="909" height="909" viewBox="0 0 909 909" version="1.1" xmlns="http://www.w3.org/2000/svg" xmlns:xlink="http://www.w3.org/1999/xlink"
style="display: block;margin-left: auto;margin-right: auto;">
<defs>

<style type="text/css"><![CDATA[
text { white-space: pre; }
path, image { pointer-events: none; }

.s1_1{
font-size: 123.39px;
font-family: Laylantia_5;
fill: #231F20;
}
.s2_1{
font-size: 34.62px;
font-family: Laylantia_5;
fill: #231F20;
}

.g0_1{
fill: #F9F0E2;
}
.g1_1{
fill: #9EC1BF;
}
.g2_1{
fill: #231F20;
fill-opacity: 0.800003;
}
.g3_1{
fill: #FFFFFF;
}
.g4_1{
fill: none;
stroke: #231F20;
stroke-width: 0.7638889;
stroke-linecap: butt;
stroke-linejoin: miter;
}

]]></style>

</defs>
<path d="M0,0
L0,909
L909,909
L909,0 Z " 
fill="#FFFFFF" stroke="none" />
<path d="M265.8,432.4c-13.6,22,-34.7,0,-34.7,0c0,0,21.1,-22.1,34.7,0Z" class="g0_1" />
<path d="M264.2,432.6c-18.6,-3.7,-8.7,-23.7,-8.7,-23.7c0,0,20.4,8.9,8.7,23.7Z" class="g0_1" />
<path d="M264.2,432.1c-18.6,3.7,-8.7,23.7,-8.7,23.7c0,0,20.4,-8.9,8.7,-23.7Z" class="g0_1" />
<path d="M265.8,423.8c4.7,0,8.5,3.8,8.5,8.6c0,4.7,-3.8,8.5,-8.5,8.5c-4.7,0,-8.6,-3.8,-8.6,-8.5c0,-4.8,3.9,-8.6,8.6,-8.6Z" class="g0_1" />
<path d="M288.9,331.6c0,1.9,-.3,3.9,-.8,5.9c-2.5,8.9,-8.8,14.2,-17,14.3c-7.6,.1,-14.5,-4.6,-16.5,-11.2c-.5,-1.7,.4,-3.5,2.1,-4c1.7,-.5,3.5,.5,4,2.2c1.1,3.8,5.6,6.6,10.3,6.6c5.3,-.1,9.2,-3.6,10.9,-9.6c2.5,-8.9,-3.3,-16,-9.7,-18.8c-6.6,-2.9,-16.7,-2.4,-23.2,8.4c-10.5,17.2,-1.3,30.7,13.9,53c1.1,1.7,2.2,3.3,3.4,5c19.1,28.4,22.1,56.4,8.2,77c-8.9,13,-26.6,21.3,-43.2,20.1c-10.8,-.7,-18.9,-5.5,-22.7,-13.3c-6,-12.2,-2.6,-20.7,2.5,-24.6c4.8,-3.6,11.4,-3.6,15.7,.2c3.3,3,4.1,6.1,4.2,8.3c.2,5.2,-3.4,9.1,-3.8,9.5c-1.3,1.3,-3.3,1.3,-4.6,.1c-1.2,-1.3,-1.3,-3.3,0,-4.5c.6,-.7,2.1,-2.8,2,-4.9c-.1,-1.3,-.7,-2.5,-2.1,-3.7c-1.9,-1.8,-5.1,-1.7,-7.5,.1c-4,3.1,-4.3,9.3,-.7,16.7c3.8,7.7,12.6,9.4,17.5,9.7c12.2,.9,28.9,-4.8,37.4,-17.3C281.5,438.5,278.5,413.1,261,387c-1.2,-1.7,-2.3,-3.4,-3.4,-5C242.1,359.2,230.9,342.8,243.5,322c8.1,-13.3,21.6,-15.1,31.3,-10.9c8.8,3.9,14.1,11.8,14.1,20.5Z" class="g0_1" />
<path d="M262.3,329.1c-4.6,0,-8.3,3.7,-8.3,8.3c0,4.6,3.7,8.4,8.3,8.4c4.6,0,8.3,-3.8,8.3,-8.4c0,-4.6,-3.7,-8.3,-8.3,-8.3Z" class="g0_1" />
<path d="M250.1,314.7c0,0,8.5,-8.3,4.8,-16.9c0,0,8.7,-1.1,8.3,12l-5.1,3.7Z" class="g0_1" />
<path d="M266.4,315.2c0,0,9.2,.8,8.4,13.1c0,0,7,-1.6,4.5,-9.9c-2.5,-8.2,-11.1,-4.8,-12.9,-3.2Z" class="g0_1" />
<path d="M288.5,335.1c0,0,-.2,12.5,-9.1,19.4c-8.9,7,-7.2,14.3,-4.6,15.8c0,0,-2.4,-4.8,2.5,-7.3c4.9,-2.3,10,4.8,7,10.8c-2.9,6,-12.9,7.4,-17.7,-.5c-4.8,-7.8,-1.2,-15.2,10.9,-23.6l8.6,-14.1c0,0,2.9,-.3,2.4,-.5Z" class="g0_1" />
<path d="M288.9,533.1c0,-1.9,-.3,-3.9,-.8,-5.9c-2.5,-8.9,-8.8,-14.2,-17,-14.3c-7.6,0,-14.5,4.6,-16.5,11.2c-.5,1.7,.4,3.5,2.1,4c1.7,.5,3.5,-.4,4,-2.1c1.1,-3.9,5.6,-6.7,10.3,-6.7c5.3,.1,9.2,3.6,10.9,9.6c2.5,8.9,-3.3,16,-9.7,18.8c-6.6,2.9,-16.7,2.4,-23.2,-8.3c-10.5,-17.3,-1.3,-30.8,13.9,-53.1c1.1,-1.6,2.2,-3.3,3.4,-5c19.1,-28.4,22.1,-56.4,8.2,-76.9C265.6,391.3,247.9,383,231.3,384.2c-10.8,.7,-18.9,5.5,-22.7,13.4c-6,12.1,-2.6,20.6,2.5,24.5c4.8,3.7,11.4,3.6,15.7,-.2c3.3,-2.9,4.1,-6.1,4.2,-8.3c.2,-5.1,-3.4,-9.1,-3.8,-9.5c-1.3,-1.2,-3.3,-1.3,-4.6,-.1c-1.2,1.3,-1.3,3.3,0,4.6c.6,.6,2.1,2.7,2,4.8c-.1,1.3,-.7,2.5,-2.1,3.7c-1.9,1.8,-5.1,1.7,-7.5,-.1c-4,-3.1,-4.3,-9.3,-.7,-16.6c3.8,-7.8,12.6,-9.5,17.5,-9.8c12.2,-.9,28.9,4.8,37.4,17.3c12.3,18.3,9.3,43.7,-8.2,69.8c-1.2,1.7,-2.3,3.4,-3.4,5c-15.5,22.8,-26.7,39.2,-14.1,60c8.1,13.4,21.6,15.1,31.3,10.9c8.8,-3.9,14.1,-11.8,14.1,-20.5Z" class="g0_1" />
<path d="M262.3,535.6c-4.6,0,-8.3,-3.7,-8.3,-8.3c0,-4.6,3.7,-8.4,8.3,-8.4c4.6,0,8.3,3.8,8.3,8.4c0,4.6,-3.7,8.3,-8.3,8.3Z" class="g0_1" />
<path d="M250.1,550c0,0,8.5,8.3,4.8,16.9c0,0,8.7,1.1,8.3,-12l-5.1,-3.7Z" class="g0_1" />
<path d="M266.4,549.5c0,0,9.2,-.8,8.4,-13.1c0,0,7,1.6,4.5,9.9c-2.5,8.2,-11.1,4.8,-12.9,3.2Z" class="g0_1" />
<path d="M288.5,529.6c0,0,-.2,-12.5,-9.1,-19.4c-8.9,-7,-7.2,-14.3,-4.6,-15.7c0,0,-2.4,4.7,2.5,7.2c4.9,2.4,10,-4.8,7,-10.8c-2.9,-6,-12.9,-7.4,-17.7,.5c-4.8,7.8,-1.2,15.2,10.9,23.6l8.6,14.1c0,0,2.9,.3,2.4,.5Z" class="g0_1" />
<path d="M279.7,410.6c0,0,-1.5,-17.4,8.2,-19.7c0,0,-14,-5.8,-15,7.8c-1.1,13.6,6.8,11.9,6.8,11.9Z" class="g0_1" />
<path d="M287.5,324.4c0,0,7.1,12.1,1.9,25.5c0,0,-.8,3,1.3,3.7c0,0,-8.2,1.6,-6.5,-8.1l2,-14.6Z" class="g0_1" />
<path d="M222,407.7c0,0,-2.8,-4.8,1.9,-8.3c4.6,-3.5,10.6,-2.4,12.3,-.7c0,0,-4.7,1.8,-4.3,7.9c0,0,2.4,13.2,-8.6,17.5l-2.1,-4.8c0,0,5.6,-5,.8,-11.6Z" class="g0_1" />
<path d="M251.6,387.4c0,0,-12.8,-4,-13.6,-12.8c0,0,-5.1,6.7,.1,12.1c5.2,5.5,13.5,.7,13.5,.7Z" class="g0_1" />
<path d="M279.7,454c0,0,-1.5,17.5,8.2,19.7c0,0,-14,5.8,-15,-7.8c-1.1,-13.6,6.8,-11.9,6.8,-11.9Z" class="g0_1" />
<path d="M287.5,540.2c0,0,7.1,-12.1,1.9,-25.4c0,0,-.8,-3.1,1.3,-3.8c0,0,-8.2,-1.6,-6.5,8.2l2,14.5Z" class="g0_1" />
<path d="M222,457c0,0,-2.8,4.8,1.9,8.2c4.6,3.5,10.6,2.4,12.3,.7c0,0,-4.7,-1.8,-4.3,-7.9c0,0,2.4,-13.2,-8.6,-17.4l-2.1,4.8c0,0,5.6,4.9,.8,11.6Z" class="g0_1" />
<path d="M251.6,477.2c0,0,-12.8,4,-13.6,12.8c0,0,-5.1,-6.7,.1,-12.1c5.2,-5.5,13.5,-.7,13.5,-.7Z" class="g0_1" />
<path d="M202.9,436c-7.9,0,-14.2,-1.6,-14.2,-3.6c0,-2.1,6.3,-3.7,14.2,-3.7c7.8,0,14.1,1.6,14.1,3.7c0,2,-6.3,3.6,-14.1,3.6Z" class="g0_1" />
<path d="M314,432.4c13.6,-22.1,34.7,0,34.7,0c0,0,-21.1,22.1,-34.7,0Z" class="g0_1" />
<path d="M315.6,432.1c18.6,3.8,8.7,23.7,8.7,23.7c0,0,-20.4,-8.9,-8.7,-23.7Z" class="g0_1" />
<path d="M315.6,432.7c18.6,-3.8,8.7,-23.8,8.7,-23.8c0,0,-20.4,8.9,-8.7,23.8Z" class="g0_1" />
<path d="M314,440.9c-4.7,0,-8.5,-3.8,-8.5,-8.5c0,-4.7,3.8,-8.5,8.5,-8.5c4.7,0,8.6,3.8,8.6,8.5c0,4.7,-3.9,8.5,-8.6,8.5Z" class="g0_1" />
<path d="M290.9,533.2c0,-2,.3,-4,.8,-6c2.5,-8.8,8.8,-14.2,17,-14.2c7.6,-.1,14.6,4.6,16.5,11.1c.5,1.7,-.4,3.5,-2.1,4c-1.7,.5,-3.5,-.4,-4,-2.1c-1.1,-3.8,-5.6,-6.7,-10.3,-6.7c-5.3,.1,-9.2,3.6,-10.9,9.6c-2.5,9,3.2,16.1,9.7,18.8c6.6,2.9,16.7,2.5,23.2,-8.3c10.5,-17.2,1.3,-30.7,-13.8,-53.1c-1.2,-1.6,-2.3,-3.3,-3.5,-5C294.4,453,291.4,424.9,305.4,404.4c8.7,-13,26.5,-21.3,43.1,-20.2c10.8,.8,18.9,5.5,22.7,13.4c6,12.1,2.6,20.6,-2.5,24.5c-4.8,3.7,-11.4,3.6,-15.7,-.1c-3.3,-3,-4.1,-6.2,-4.2,-8.3c-.2,-5.2,3.4,-9.1,3.9,-9.6c1.2,-1.2,3.2,-1.2,4.5,0c1.2,1.2,1.3,3.2,.1,4.5c-.6,.6,-2.2,2.7,-2.1,4.9c.1,1.3,.7,2.5,2.1,3.7c1.9,1.7,5.1,1.6,7.5,-.2c4,-3,4.3,-9.3,.7,-16.6c-3.8,-7.7,-12.6,-9.5,-17.5,-9.8c-12.1,-.8,-28.9,4.8,-37.4,17.4c-12.3,18.2,-9.3,43.7,8.2,69.7c1.2,1.7,2.3,3.4,3.4,5c15.5,22.8,26.7,39.3,14.1,60c-8.1,13.4,-21.6,15.1,-31.3,10.9c-8.8,-3.8,-14.1,-11.8,-14.1,-20.4Z" class="g0_1" />
<path d="M317.5,535.7c4.6,0,8.3,-3.8,8.3,-8.4c0,-4.6,-3.7,-8.3,-8.3,-8.3c-4.6,0,-8.3,3.7,-8.3,8.3c0,4.6,3.7,8.4,8.3,8.4Z" class="g0_1" />
<path d="M329.7,550c0,0,-8.5,8.3,-4.8,17c0,0,-8.6,1,-8.2,-12l5,-3.8Z" class="g0_1" />
<path d="M313.5,549.5c0,0,-9.2,-.8,-8.4,-13.1c0,0,-7.1,1.7,-4.6,9.9c2.6,8.3,11.1,4.8,13,3.2Z" class="g0_1" />
<path d="M291.3,529.7c0,0,.2,-12.6,9.1,-19.5c8.9,-6.9,7.2,-14.2,4.7,-15.7c0,0,2.4,4.8,-2.6,7.2c-4.9,2.4,-10,-4.8,-7,-10.8c2.9,-6,12.9,-7.3,17.7,.5c4.8,7.9,1.2,15.2,-10.9,23.6l-8.6,14.1c0,0,-2.9,.3,-2.4,.6Z" class="g0_1" />
<path d="M290.9,331.6c0,2,.3,4,.8,6c2.5,8.8,8.8,14.1,17,14.2c7.6,.1,14.6,-4.6,16.5,-11.2c.5,-1.7,-.4,-3.4,-2.1,-4c-1.7,-.5,-3.5,.5,-4,2.2c-1.1,3.8,-5.6,6.7,-10.3,6.6c-5.3,0,-9.2,-3.5,-10.9,-9.5c-2.5,-9,3.2,-16.1,9.7,-18.9c6.6,-2.8,16.7,-2.4,23.2,8.4c10.5,17.2,1.3,30.7,-13.8,53.1c-1.2,1.6,-2.3,3.3,-3.5,5c-19.1,28.3,-22.1,56.3,-8.1,76.9c8.7,13,26.5,21.3,43.1,20.1c10.8,-.7,18.9,-5.4,22.7,-13.3c6,-12.1,2.6,-20.6,-2.5,-24.5c-4.8,-3.7,-11.4,-3.6,-15.7,.1c-3.3,3,-4.1,6.2,-4.2,8.3c-.2,5.2,3.4,9.1,3.9,9.5c1.2,1.3,3.2,1.3,4.5,.1c1.2,-1.2,1.3,-3.3,.1,-4.5c-.6,-.7,-2.2,-2.7,-2.1,-4.9c.1,-1.3,.7,-2.5,2.1,-3.7c1.9,-1.7,5.1,-1.7,7.5,.2c4,3,4.3,9.2,.7,16.6c-3.8,7.7,-12.6,9.4,-17.5,9.8c-12.1,.8,-28.9,-4.9,-37.4,-17.4c-12.3,-18.3,-9.3,-43.7,8.2,-69.7c1.2,-1.7,2.3,-3.4,3.4,-5.1c15.5,-22.7,26.7,-39.2,14.1,-59.9C328.2,308.7,314.7,307,305,311.2c-8.8,3.8,-14.1,11.7,-14.1,20.4Z" class="g0_1" />
<path d="M317.5,329.1c4.6,0,8.3,3.7,8.3,8.4c0,4.6,-3.7,8.3,-8.3,8.3c-4.6,0,-8.3,-3.7,-8.3,-8.3c0,-4.7,3.7,-8.4,8.3,-8.4Z" class="g0_1" />
<path d="M329.7,314.7c0,0,-8.5,-8.2,-4.8,-16.9c0,0,-8.6,-1.1,-8.2,12l5,3.7Z" class="g0_1" />
<path d="M313.5,315.3c0,0,-9.2,.8,-8.4,13c0,0,-7.1,-1.6,-4.6,-9.8c2.6,-8.3,11.1,-4.8,13,-3.2Z" class="g0_1" />
<path d="M291.3,335.1c0,0,.2,12.5,9.1,19.5c8.9,6.9,7.2,14.2,4.7,15.7c0,0,2.4,-4.8,-2.6,-7.2c-4.9,-2.4,-10,4.8,-7,10.8c2.9,6,12.9,7.3,17.7,-.6c4.8,-7.8,1.2,-15.1,-10.9,-23.5l-8.6,-14.2c0,0,-2.9,-.2,-2.4,-.5Z" class="g0_1" />
<path d="M300.1,454.1c0,0,1.5,17.5,-8.2,19.8c0,0,14,5.7,15,-7.9c1.1,-13.6,-6.8,-11.9,-6.8,-11.9Z" class="g0_1" />
<path d="M292.3,540.3c0,0,-7.1,-12.1,-1.9,-25.4c0,0,.8,-3.1,-1.3,-3.7c0,0,8.2,-1.6,6.5,8.1l-2,14.5Z" class="g0_1" />
<path d="M357.8,457.1c0,0,2.8,4.8,-1.8,8.2c-4.7,3.5,-10.7,2.4,-12.4,.7c0,0,4.8,-1.7,4.4,-7.9c0,0,-2.4,-13.1,8.5,-17.4l2.1,4.8c0,0,-5.6,4.9,-.8,11.6Z" class="g0_1" />
<path d="M328.2,477.3c0,0,12.8,4,13.6,12.8c0,0,5.1,-6.6,-.1,-12.1c-5.2,-5.5,-13.5,-.7,-13.5,-.7Z" class="g0_1" />
<path d="M300.1,410.7c0,0,1.5,-17.4,-8.2,-19.7c0,0,14,-5.7,15,7.9c1.1,13.5,-6.8,11.8,-6.8,11.8Z" class="g0_1" />
<path d="M292.3,324.5c0,0,-7.1,12.2,-1.9,25.5c0,0,.8,3,-1.3,3.7c0,0,8.2,1.6,6.5,-8.1l-2,-14.5Z" class="g0_1" />
<path d="M357.8,407.8c0,0,2.8,-4.8,-1.8,-8.3c-4.7,-3.4,-10.7,-2.4,-12.4,-.6c0,0,4.8,1.7,4.4,7.8c0,0,-2.4,13.2,8.5,17.5l2.1,-4.8c0,0,-5.6,-4.9,-.8,-11.6Z" class="g0_1" />
<path d="M328.2,387.5c0,0,12.8,-4,13.6,-12.7c0,0,5.1,6.6,-.1,12.1c-5.2,5.4,-13.5,.6,-13.5,.6Z" class="g0_1" />
<path d="M377,428.7c7.8,0,14.1,1.7,14.1,3.7c0,2,-6.3,3.7,-14.1,3.7c-7.9,0,-14.2,-1.7,-14.2,-3.7c0,-2,6.3,-3.7,14.2,-3.7Z" class="g0_1" />
<path d="M587.1,432.4c-13.6,22,-34.6,0,-34.6,0c0,0,21,-22.1,34.6,0Z" class="g0_1" />
<path d="M585.5,432.6c-18.5,-3.7,-8.7,-23.7,-8.7,-23.7c0,0,20.4,8.9,8.7,23.7Z" class="g0_1" />
<path d="M585.5,432.1c-18.5,3.7,-8.7,23.7,-8.7,23.7c0,0,20.4,-8.9,8.7,-23.7Z" class="g0_1" />
<path d="M587.1,423.8c4.7,0,8.5,3.8,8.5,8.6c0,4.7,-3.8,8.5,-8.5,8.5c-4.7,0,-8.5,-3.8,-8.5,-8.5c0,-4.8,3.8,-8.6,8.5,-8.6Z" class="g0_1" />
<path d="M610.2,331.6c0,1.9,-.3,3.9,-.8,5.9c-2.5,8.9,-8.8,14.2,-17,14.3c-7.6,.1,-14.5,-4.6,-16.5,-11.2c-.5,-1.7,.4,-3.5,2.1,-4c1.7,-.5,3.5,.5,4,2.2c1.2,3.8,5.6,6.6,10.3,6.6c5.3,-.1,9.3,-3.6,10.9,-9.6c2.5,-8.9,-3.2,-16,-9.6,-18.8c-6.7,-2.9,-16.8,-2.4,-23.3,8.4c-10.5,17.2,-1.3,30.7,13.9,53c1.1,1.7,2.2,3.3,3.4,5c19.1,28.4,22.1,56.4,8.2,77c-8.8,13,-26.6,21.3,-43.1,20.1c-10.9,-.7,-19,-5.5,-22.8,-13.3C524,455,527.3,446.5,532.4,442.6c4.9,-3.6,11.4,-3.6,15.7,.2c3.3,3,4.1,6.1,4.2,8.3c.2,5.2,-3.4,9.1,-3.8,9.5c-1.3,1.3,-3.3,1.3,-4.6,.1c-1.2,-1.3,-1.3,-3.3,0,-4.5c.6,-.7,2.1,-2.8,2,-4.9c0,-1.3,-.7,-2.5,-2.1,-3.7c-1.9,-1.8,-5.1,-1.7,-7.5,.1c-4,3.1,-4.3,9.3,-.6,16.7c3.7,7.7,12.5,9.4,17.4,9.7c12.2,.9,28.9,-4.8,37.4,-17.3c12.3,-18.3,9.4,-43.7,-8.2,-69.8c-1.2,-1.7,-2.3,-3.4,-3.4,-5C563.4,359.2,552.2,342.8,564.8,322c8.1,-13.3,21.6,-15.1,31.3,-10.9c8.9,3.9,14.1,11.8,14.1,20.5Z" class="g0_1" />
<path d="M583.6,329.1c-4.6,0,-8.3,3.7,-8.3,8.3c0,4.6,3.7,8.4,8.3,8.4c4.6,0,8.4,-3.8,8.4,-8.4c0,-4.6,-3.8,-8.3,-8.4,-8.3Z" class="g0_1" />
<path d="M571.4,314.7c0,0,8.5,-8.3,4.8,-16.9c0,0,8.7,-1.1,8.3,12l-5.1,3.7Z" class="g0_1" />
<path d="M587.7,315.2c0,0,9.2,.8,8.4,13.1c0,0,7,-1.6,4.5,-9.9c-2.5,-8.2,-11.1,-4.8,-12.9,-3.2Z" class="g0_1" />
<path d="M609.8,335.1c0,0,-.2,12.5,-9.1,19.4c-8.9,7,-7.2,14.3,-4.6,15.8c0,0,-2.4,-4.8,2.5,-7.3c4.9,-2.3,10,4.8,7,10.8c-2.9,6,-12.9,7.4,-17.7,-.5c-4.8,-7.8,-1.2,-15.2,11,-23.6l8.5,-14.1c0,0,2.9,-.3,2.4,-.5Z" class="g0_1" />
<path d="M610.2,533.1c0,-1.9,-.3,-3.9,-.8,-5.9c-2.5,-8.9,-8.8,-14.2,-17,-14.3c-7.6,0,-14.5,4.6,-16.5,11.2c-.5,1.7,.4,3.5,2.1,4c1.7,.5,3.5,-.4,4,-2.1c1.2,-3.9,5.6,-6.7,10.3,-6.7c5.3,.1,9.3,3.6,10.9,9.6c2.5,8.9,-3.2,16,-9.6,18.8c-6.7,2.9,-16.8,2.4,-23.3,-8.3C559.8,522.1,569,508.6,584.2,486.3c1.1,-1.6,2.2,-3.3,3.4,-5c19.1,-28.4,22.1,-56.4,8.2,-76.9C587,391.3,569.2,383,552.7,384.2c-10.9,.7,-19,5.5,-22.8,13.4c-5.9,12.1,-2.6,20.6,2.5,24.5c4.9,3.7,11.4,3.6,15.7,-.2c3.3,-2.9,4.1,-6.1,4.2,-8.3c.2,-5.1,-3.4,-9.1,-3.8,-9.5c-1.3,-1.2,-3.3,-1.3,-4.6,-.1c-1.2,1.3,-1.3,3.3,0,4.6c.6,.6,2.1,2.7,2,4.8c0,1.3,-.7,2.5,-2.1,3.7c-1.9,1.8,-5.1,1.7,-7.5,-.1c-4,-3.1,-4.3,-9.3,-.6,-16.6c3.7,-7.8,12.5,-9.5,17.4,-9.8c12.2,-.9,28.9,4.8,37.4,17.3c12.3,18.3,9.4,43.7,-8.2,69.8c-1.2,1.7,-2.3,3.4,-3.4,5c-15.5,22.8,-26.7,39.2,-14.1,60c8.1,13.4,21.6,15.1,31.3,10.9c8.9,-3.9,14.1,-11.8,14.1,-20.5Z" class="g0_1" />
<path d="M583.6,535.6c-4.6,0,-8.3,-3.7,-8.3,-8.3c0,-4.6,3.7,-8.4,8.3,-8.4c4.6,0,8.4,3.8,8.4,8.4c0,4.6,-3.8,8.3,-8.4,8.3Z" class="g0_1" />
<path d="M571.4,550c0,0,8.5,8.3,4.8,16.9c0,0,8.7,1.1,8.3,-12l-5.1,-3.7Z" class="g0_1" />
<path d="M587.7,549.5c0,0,9.2,-.8,8.4,-13.1c0,0,7,1.6,4.5,9.9c-2.5,8.2,-11.1,4.8,-12.9,3.2Z" class="g0_1" />
<path d="M609.8,529.6c0,0,-.2,-12.5,-9.1,-19.4c-8.9,-7,-7.2,-14.3,-4.6,-15.7c0,0,-2.4,4.7,2.5,7.2c4.9,2.4,10,-4.8,7,-10.8c-2.9,-6,-12.9,-7.4,-17.7,.5c-4.8,7.8,-1.2,15.2,11,23.6l8.5,14.1c0,0,2.9,.3,2.4,.5Z" class="g0_1" />
<path d="M601,410.6c0,0,-1.5,-17.4,8.3,-19.7c0,0,-14,-5.8,-15.1,7.8c-1.1,13.6,6.8,11.9,6.8,11.9Z" class="g0_1" />
<path d="M608.9,324.4c0,0,7,12.1,1.8,25.5c0,0,-.8,3,1.4,3.7c0,0,-8.3,1.6,-6.6,-8.1l2,-14.6Z" class="g0_1" />
<path d="M543.3,407.7c0,0,-2.8,-4.8,1.9,-8.3c4.6,-3.5,10.6,-2.4,12.4,-.7c0,0,-4.8,1.8,-4.4,7.9c0,0,2.4,13.2,-8.6,17.5l-2.1,-4.8c0,0,5.6,-5,.8,-11.6Z" class="g0_1" />
<path d="M572.9,387.4c0,0,-12.8,-4,-13.6,-12.8c0,0,-5.1,6.7,.1,12.1c5.2,5.5,13.5,.7,13.5,.7Z" class="g0_1" />
<path d="M601,454c0,0,-1.5,17.5,8.3,19.7c0,0,-14,5.8,-15.1,-7.8C593.1,452.3,601,454,601,454Z" class="g0_1" />
<path d="M608.9,540.2c0,0,7,-12.1,1.8,-25.4c0,0,-.8,-3.1,1.4,-3.8c0,0,-8.3,-1.6,-6.6,8.2l2,14.5Z" class="g0_1" />
<path d="M543.3,457c0,0,-2.8,4.8,1.9,8.2c4.6,3.5,10.6,2.4,12.4,.7c0,0,-4.8,-1.8,-4.4,-7.9c0,0,2.4,-13.2,-8.6,-17.4l-2.1,4.8c0,0,5.6,4.9,.8,11.6Z" class="g0_1" />
<path d="M572.9,477.2c0,0,-12.8,4,-13.6,12.8c0,0,-5.1,-6.7,.1,-12.1c5.2,-5.5,13.5,-.7,13.5,-.7Z" class="g0_1" />
<path d="M524.2,436c-7.8,0,-14.2,-1.6,-14.2,-3.6c0,-2.1,6.4,-3.7,14.2,-3.7c7.8,0,14.1,1.6,14.1,3.7c0,2,-6.3,3.6,-14.1,3.6Z" class="g0_1" />
<path d="M635.3,432.4c13.6,-22.1,34.7,0,34.7,0c0,0,-21.1,22.1,-34.7,0Z" class="g0_1" />
<path d="M636.9,432.1c18.6,3.8,8.7,23.7,8.7,23.7c0,0,-20.4,-8.9,-8.7,-23.7Z" class="g0_1" />
<path d="M636.9,432.7c18.6,-3.8,8.7,-23.8,8.7,-23.8c0,0,-20.4,8.9,-8.7,23.8Z" class="g0_1" />
<path d="M635.3,440.9c-4.7,0,-8.5,-3.8,-8.5,-8.5c0,-4.7,3.8,-8.5,8.5,-8.5c4.8,0,8.6,3.8,8.6,8.5c0,4.7,-3.8,8.5,-8.6,8.5Z" class="g0_1" />
<path d="M612.2,533.2c0,-2,.3,-4,.8,-6c2.5,-8.8,8.8,-14.2,17,-14.2c7.6,-.1,14.6,4.6,16.6,11.1c.5,1.7,-.5,3.5,-2.2,4c-1.7,.5,-3.5,-.4,-4,-2.1c-1.1,-3.8,-5.6,-6.7,-10.3,-6.7c-5.2,.1,-9.2,3.6,-10.9,9.6c-2.5,9,3.3,16.1,9.7,18.8c6.6,2.9,16.7,2.5,23.3,-8.3c10.4,-17.2,1.3,-30.7,-13.9,-53.1c-1.2,-1.6,-2.3,-3.3,-3.4,-5C615.7,453,612.8,424.9,626.7,404.4c8.8,-13,26.5,-21.3,43.1,-20.2c10.8,.8,18.9,5.5,22.7,13.4c6,12.1,2.6,20.6,-2.5,24.5c-4.8,3.7,-11.4,3.6,-15.7,-.1c-3.3,-3,-4.1,-6.2,-4.2,-8.3c-.2,-5.2,3.5,-9.1,3.9,-9.6c1.2,-1.2,3.2,-1.2,4.5,0c1.2,1.2,1.3,3.2,.1,4.5c-.6,.6,-2.2,2.7,-2.1,4.9c.1,1.3,.7,2.5,2.1,3.7c2,1.7,5.1,1.6,7.5,-.2c4,-3,4.3,-9.3,.7,-16.6c-3.8,-7.7,-12.6,-9.5,-17.5,-9.8c-12.1,-.8,-28.9,4.8,-37.3,17.4c-12.4,18.2,-9.4,43.7,8.2,69.7c1.1,1.7,2.3,3.4,3.3,5c15.5,22.8,26.7,39.3,14.1,60c-8.1,13.4,-21.6,15.1,-31.3,10.9c-8.8,-3.8,-14.1,-11.8,-14.1,-20.4Z" class="g0_1" />
<path d="M638.8,535.7c4.6,0,8.4,-3.8,8.4,-8.4c0,-4.6,-3.8,-8.3,-8.4,-8.3c-4.6,0,-8.3,3.7,-8.3,8.3c0,4.6,3.7,8.4,8.3,8.4Z" class="g0_1" />
<path d="M651,550c0,0,-8.5,8.3,-4.8,17c0,0,-8.6,1,-8.2,-12l5,-3.8Z" class="g0_1" />
<path d="M634.8,549.5c0,0,-9.2,-.8,-8.4,-13.1c0,0,-7.1,1.7,-4.6,9.9c2.6,8.3,11.1,4.8,13,3.2Z" class="g0_1" />
<path d="M612.7,529.7c0,0,.1,-12.6,9,-19.5c8.9,-6.9,7.2,-14.2,4.7,-15.7c0,0,2.4,4.8,-2.6,7.2c-4.9,2.4,-10,-4.8,-7,-10.8c2.9,-6,12.9,-7.3,17.7,.5c4.8,7.9,1.2,15.2,-10.9,23.6l-8.5,14.1c0,0,-3,.3,-2.4,.6Z" class="g0_1" />
<path d="M612.2,331.6c0,2,.3,4,.8,6c2.5,8.8,8.8,14.1,17,14.2c7.6,.1,14.6,-4.6,16.6,-11.2c.5,-1.7,-.5,-3.4,-2.2,-4c-1.7,-.5,-3.5,.5,-4,2.2c-1.1,3.8,-5.6,6.7,-10.3,6.6c-5.2,0,-9.2,-3.5,-10.9,-9.5c-2.5,-9,3.3,-16.1,9.7,-18.9c6.6,-2.8,16.7,-2.4,23.3,8.4c10.4,17.2,1.3,30.7,-13.9,53.1c-1.2,1.6,-2.3,3.3,-3.4,5c-19.2,28.3,-22.1,56.3,-8.2,76.9c8.8,13,26.5,21.3,43.1,20.1c10.8,-.7,18.9,-5.4,22.7,-13.3c6,-12.1,2.6,-20.6,-2.5,-24.5c-4.8,-3.7,-11.4,-3.6,-15.7,.1c-3.3,3,-4.1,6.2,-4.2,8.3c-.2,5.2,3.5,9.1,3.9,9.5c1.2,1.3,3.2,1.3,4.5,.1c1.2,-1.2,1.3,-3.3,.1,-4.5c-.6,-.7,-2.2,-2.7,-2.1,-4.9c.1,-1.3,.7,-2.5,2.1,-3.7c2,-1.7,5.1,-1.7,7.5,.2c4,3,4.3,9.2,.7,16.6c-3.8,7.7,-12.6,9.4,-17.5,9.8C657.2,475,640.4,469.3,632,456.8c-12.4,-18.3,-9.4,-43.7,8.2,-69.7c1.1,-1.7,2.3,-3.4,3.3,-5.1c15.5,-22.7,26.7,-39.2,14.1,-59.9C649.5,308.7,636,307,626.3,311.2c-8.8,3.8,-14.1,11.7,-14.1,20.4Z" class="g0_1" />
<path d="M638.8,329.1c4.6,0,8.4,3.7,8.4,8.4c0,4.6,-3.8,8.3,-8.4,8.3c-4.6,0,-8.3,-3.7,-8.3,-8.3c0,-4.7,3.7,-8.4,8.3,-8.4Z" class="g0_1" />
<path d="M651,314.7c0,0,-8.5,-8.2,-4.8,-16.9c0,0,-8.6,-1.1,-8.2,12l5,3.7Z" class="g0_1" />
<path d="M634.8,315.3c0,0,-9.2,.8,-8.4,13c0,0,-7.1,-1.6,-4.6,-9.8c2.6,-8.3,11.1,-4.8,13,-3.2Z" class="g0_1" />
<path d="M612.7,335.1c0,0,.1,12.5,9,19.5c8.9,6.9,7.2,14.2,4.7,15.7c0,0,2.4,-4.8,-2.6,-7.2c-4.9,-2.4,-10,4.8,-7,10.8c2.9,6,12.9,7.3,17.7,-.6c4.8,-7.8,1.2,-15.1,-10.9,-23.5l-8.5,-14.2c0,0,-3,-.2,-2.4,-.5Z" class="g0_1" />
<path d="M621.5,454.1c0,0,1.4,17.5,-8.3,19.8c0,0,14,5.7,15,-7.9c1.1,-13.6,-6.7,-11.9,-6.7,-11.9Z" class="g0_1" />
<path d="M613.6,540.3c0,0,-7.1,-12.1,-1.9,-25.4c0,0,.8,-3.1,-1.3,-3.7c0,0,8.2,-1.6,6.5,8.1l-2,14.5Z" class="g0_1" />
<path d="M679.1,457.1c0,0,2.8,4.8,-1.9,8.2c-4.6,3.5,-10.6,2.4,-12.3,.7c0,0,4.8,-1.7,4.4,-7.9c0,0,-2.4,-13.1,8.5,-17.4l2.1,4.8c0,0,-5.6,4.9,-.8,11.6Z" class="g0_1" />
<path d="M649.6,477.3c0,0,12.7,4,13.5,12.8c0,0,5.1,-6.6,-.1,-12.1c-5.2,-5.5,-13.4,-.7,-13.4,-.7Z" class="g0_1" />
<path d="M621.5,410.7c0,0,1.4,-17.4,-8.3,-19.7c0,0,14,-5.7,15,7.9c1.1,13.5,-6.7,11.8,-6.7,11.8Z" class="g0_1" />
<path d="M613.6,324.5c0,0,-7.1,12.2,-1.9,25.5c0,0,.8,3,-1.3,3.7c0,0,8.2,1.6,6.5,-8.1l-2,-14.5Z" class="g0_1" />
<path d="M679.1,407.8c0,0,2.8,-4.8,-1.9,-8.3c-4.6,-3.4,-10.6,-2.4,-12.3,-.6c0,0,4.8,1.7,4.4,7.8c0,0,-2.4,13.2,8.5,17.5l2.1,-4.8c0,0,-5.6,-4.9,-.8,-11.6Z" class="g0_1" />
<path d="M649.6,387.5c0,0,12.7,-4,13.5,-12.7c0,0,5.1,6.6,-.1,12.1c-5.2,5.4,-13.4,.6,-13.4,.6Z" class="g0_1" />
<path d="M698.2,428.7c7.9,0,14.2,1.7,14.2,3.7c0,2,-6.3,3.7,-14.2,3.7c-7.8,0,-14.1,-1.7,-14.1,-3.7c0,-2,6.3,-3.7,14.1,-3.7Z" class="g0_1" />
<path d="M450.5,617.2c22.1,13.5,0,34.6,0,34.6c0,0,-22,-21.1,0,-34.6Z" class="g0_1" />
<path d="M450.8,618.7c-3.7,18.6,-23.7,8.7,-23.7,8.7c0,0,8.9,-20.4,23.7,-8.7Z" class="g0_1" />
<path d="M450.3,618.7c3.7,18.6,23.7,8.7,23.7,8.7c0,0,-8.9,-20.4,-23.7,-8.7Z" class="g0_1" />
<path d="M442,617.2c0,-4.8,3.8,-8.6,8.5,-8.6c4.8,0,8.6,3.8,8.6,8.6c0,4.7,-3.8,8.5,-8.6,8.5c-4.7,0,-8.5,-3.8,-8.5,-8.5Z" class="g0_1" />
<path d="M349.8,594c1.9,0,3.9,.3,5.9,.8c8.9,2.5,14.2,8.9,14.3,17c0,7.6,-4.6,14.6,-11.2,16.6c-1.7,.5,-3.5,-.5,-4,-2.2c-.5,-1.7,.5,-3.4,2.1,-4c3.9,-1.1,6.7,-5.6,6.7,-10.3C363.5,606.7,360,602.7,354,601c-9,-2.5,-16,3.3,-18.8,9.7c-2.9,6.6,-2.4,16.7,8.3,23.3c17.3,10.4,30.8,1.3,53.1,-13.9c1.7,-1.1,3.3,-2.3,5,-3.4c28.4,-19.2,56.4,-22.1,77,-8.2c13,8.8,21.3,26.5,20.1,43.1c-.7,10.8,-5.5,18.9,-13.3,22.7c-12.2,6,-20.7,2.6,-24.6,-2.5c-3.7,-4.8,-3.6,-11.4,.2,-15.6c2.9,-3.4,6.1,-4.2,8.2,-4.3c5.2,-.2,9.2,3.5,9.6,3.9c1.3,1.2,1.3,3.2,.1,4.5c-1.3,1.3,-3.3,1.3,-4.5,.1c-.7,-.6,-2.8,-2.2,-4.9,-2.1c-1.3,.1,-2.5,.8,-3.7,2.1c-1.8,2,-1.7,5.1,.1,7.5c3.1,4.1,9.3,4.3,16.7,.7c7.7,-3.8,9.4,-12.6,9.7,-17.5C493.2,639,487.5,622.2,475,613.8c-18.3,-12.4,-43.7,-9.4,-69.8,8.2c-1.7,1.1,-3.4,2.2,-5,3.4c-22.8,15.4,-39.2,26.6,-60,14c-13.3,-8.1,-15.1,-21.5,-10.9,-31.3c3.9,-8.8,11.8,-14.1,20.5,-14.1Z" class="g0_1" />
<path d="M347.3,620.6c0,4.6,3.7,8.4,8.3,8.4c4.6,0,8.4,-3.8,8.4,-8.4c0,-4.6,-3.8,-8.3,-8.4,-8.3c-4.6,0,-8.3,3.7,-8.3,8.3Z" class="g0_1" />
<path d="M332.9,632.8c0,0,-8.3,-8.5,-16.9,-4.8c0,0,-1.1,-8.6,12,-8.2l3.7,5Z" class="g0_1" />
<path d="M333.4,616.6c0,0,.8,-9.2,13.1,-8.4c0,0,-1.6,-7.1,-9.9,-4.5c-8.2,2.5,-4.8,11,-3.2,12.9Z" class="g0_1" />
<path d="M353.3,594.5c0,0,12.5,.1,19.4,9c6.9,8.9,14.3,7.2,15.8,4.7c0,0,-4.9,2.4,-7.3,-2.5c-2.3,-5,4.9,-10,10.8,-7.1c6,2.9,7.4,12.9,-.5,17.7c-7.9,4.8,-15.2,1.2,-23.6,-10.9l-14.1,-8.5c0,0,-.3,-3,-.5,-2.4Z" class="g0_1" />
<path d="M551.3,594c-1.9,0,-3.9,.3,-5.9,.8c-8.9,2.5,-14.2,8.9,-14.3,17c-.1,7.6,4.6,14.6,11.2,16.6c1.7,.5,3.5,-.5,4,-2.2c.5,-1.7,-.5,-3.4,-2.1,-4c-3.9,-1.1,-6.7,-5.6,-6.7,-10.3c.1,-5.2,3.5,-9.2,9.6,-10.9c8.9,-2.5,16,3.3,18.8,9.7c2.9,6.6,2.4,16.7,-8.3,23.3c-17.3,10.4,-30.8,1.3,-53.1,-13.9c-1.7,-1.1,-3.3,-2.3,-5.1,-3.4c-28.3,-19.2,-56.3,-22.1,-76.9,-8.2c-13,8.8,-21.3,26.5,-20.1,43.1c.7,10.8,5.5,18.9,13.3,22.7c12.2,6,20.7,2.6,24.6,-2.5c3.6,-4.8,3.6,-11.4,-.2,-15.6c-3,-3.4,-6.1,-4.2,-8.3,-4.3c-5.1,-.2,-9.1,3.5,-9.5,3.9c-1.2,1.2,-1.3,3.2,-.1,4.5c1.3,1.3,3.3,1.3,4.6,.1c.6,-.6,2.7,-2.2,4.8,-2.1c1.3,.1,2.5,.8,3.7,2.1c1.8,2,1.7,5.1,-.1,7.5c-3.1,4.1,-9.3,4.3,-16.7,.7c-7.7,-3.8,-9.4,-12.6,-9.7,-17.5c-.9,-12.1,4.8,-28.9,17.3,-37.3c18.3,-12.4,43.7,-9.4,69.8,8.2c1.7,1.1,3.4,2.2,5,3.4c22.8,15.4,39.2,26.6,60,14c13.3,-8.1,15.1,-21.5,10.9,-31.3C567.9,599.3,560,594,551.3,594Z" class="g0_1" />
<path d="M553.8,620.6c0,4.6,-3.7,8.4,-8.3,8.4c-4.6,0,-8.4,-3.8,-8.4,-8.4c0,-4.6,3.8,-8.3,8.4,-8.3c4.6,0,8.3,3.7,8.3,8.3Z" class="g0_1" />
<path d="M568.2,632.8c0,0,8.3,-8.5,16.9,-4.8c0,0,1.1,-8.6,-12,-8.2l-3.7,5Z" class="g0_1" />
<path d="M567.7,616.6c0,0,-.8,-9.2,-13.1,-8.4c0,0,1.6,-7.1,9.9,-4.5c8.2,2.5,4.8,11,3.2,12.9Z" class="g0_1" />
<path d="M547.8,594.5c0,0,-12.5,.1,-19.4,9c-7,8.9,-14.3,7.2,-15.8,4.7c0,0,4.9,2.4,7.2,-2.5c2.5,-5,-4.7,-10,-10.7,-7.1c-6,2.9,-7.4,12.9,.5,17.7c7.9,4.8,15.2,1.2,23.6,-10.9l14.1,-8.5c0,0,.3,-3,.5,-2.4Z" class="g0_1" />
<path d="M428.8,603.3c0,0,-17.5,1.4,-19.7,-8.3c0,0,-5.8,14,7.8,15c13.6,1.1,11.9,-6.7,11.9,-6.7Z" class="g0_1" />
<path d="M342.6,595.4c0,0,12.1,-7.1,25.4,-1.9c0,0,3.1,.8,3.8,-1.3c0,0,1.6,8.3,-8.1,6.5l-14.6,-2Z" class="g0_1" />
<path d="M425.9,660.9c0,0,-4.8,2.8,-8.3,-1.8c-3.5,-4.7,-2.4,-10.7,-.7,-12.4c0,0,1.8,4.8,7.9,4.4c0,0,13.2,-2.4,17.5,8.5l-4.9,2.1c0,0,-4.9,-5.6,-11.5,-.8Z" class="g0_1" />
<path d="M405.6,631.4c0,0,-4,12.8,-12.8,13.5c0,0,6.7,5.1,12.1,-.1c5.5,-5.2,.7,-13.4,.7,-13.4Z" class="g0_1" />
<path d="M472.2,603.3c0,0,17.5,1.4,19.7,-8.3c0,0,5.8,14,-7.8,15c-13.6,1.1,-11.9,-6.7,-11.9,-6.7Z" class="g0_1" />
<path d="M558.4,595.4c0,0,-12.1,-7.1,-25.4,-1.9c0,0,-3.1,.8,-3.8,-1.3c0,0,-1.6,8.3,8.2,6.5l14.5,-2Z" class="g0_1" />
<path d="M475.1,660.9c0,0,4.8,2.8,8.3,-1.8c3.5,-4.7,2.4,-10.7,.7,-12.4c0,0,-1.8,4.8,-7.9,4.4c0,0,-13.2,-2.4,-17.4,8.5l4.8,2.1c0,0,4.9,-5.6,11.5,-.8Z" class="g0_1" />
<path d="M495.4,631.4c0,0,4,12.8,12.8,13.5c0,0,-6.7,5.1,-12.1,-.1c-5.5,-5.2,-.7,-13.4,-.7,-13.4Z" class="g0_1" />
<path d="M454.2,680.1c0,7.8,-1.6,14.1,-3.7,14.1c-2,0,-3.6,-6.3,-3.6,-14.1c0,-7.9,1.6,-14.2,3.6,-14.2c2.1,0,3.7,6.3,3.7,14.2Z" class="g0_1" />
<path d="M450.6,568.9c-22.1,-13.6,0,-34.6,0,-34.6c0,0,22,21,0,34.6Z" class="g0_1" />
<path d="M450.3,567.3C454,548.8,474,558.6,474,558.6c0,0,-8.9,20.4,-23.7,8.7Z" class="g0_1" />
<path d="M450.9,567.3c-3.8,-18.5,-23.8,-8.7,-23.8,-8.7c0,0,8.9,20.4,23.8,8.7Z" class="g0_1" />
<path d="M459.1,568.9c0,4.7,-3.8,8.5,-8.5,8.5c-4.7,0,-8.6,-3.8,-8.6,-8.5c0,-4.7,3.9,-8.5,8.6,-8.5c4.7,0,8.5,3.8,8.5,8.5Z" class="g0_1" />
<path d="M551.3,592c-1.9,0,-3.9,-.2,-5.9,-.8c-8.8,-2.5,-14.2,-8.8,-14.2,-17c-.1,-7.6,4.6,-14.5,11.1,-16.5c1.7,-.5,3.5,.4,4,2.1c.5,1.7,-.4,3.5,-2.1,4c-3.9,1.2,-6.7,5.6,-6.7,10.3c.1,5.3,3.6,9.3,9.6,10.9c9,2.5,16,-3.2,18.8,-9.6c2.9,-6.7,2.5,-16.8,-8.3,-23.3C540.3,541.6,526.9,550.8,504.5,566c-1.6,1.1,-3.3,2.2,-5,3.4c-28.3,19.1,-56.4,22.1,-76.9,8.2C409.5,568.8,401.3,551,402.4,534.5c.8,-10.9,5.5,-18.9,13.4,-22.8c12.1,-5.9,20.6,-2.6,24.5,2.5c3.7,4.9,3.6,11.5,-.2,15.7c-2.9,3.4,-6.1,4.1,-8.2,4.2c-5.2,.2,-9.1,-3.4,-9.6,-3.8c-1.2,-1.3,-1.2,-3.3,0,-4.6c1.2,-1.2,3.2,-1.2,4.5,0c.6,.6,2.7,2.1,4.9,2c1.3,0,2.5,-.7,3.7,-2c1.7,-2,1.6,-5.2,-.2,-7.6c-3,-4,-9.3,-4.3,-16.6,-.6c-7.7,3.7,-9.5,12.5,-9.8,17.4c-.8,12.2,4.8,28.9,17.4,37.4c18.2,12.3,43.7,9.4,69.7,-8.2c1.7,-1.2,3.4,-2.3,5,-3.4c22.8,-15.5,39.2,-26.7,60,-14.1c13.4,8.2,15.1,21.6,10.9,31.3C568,586.8,560,592,551.3,592Z" class="g0_1" />
<path d="M553.8,565.4c0,-4.6,-3.7,-8.3,-8.3,-8.3c-4.6,0,-8.3,3.7,-8.3,8.3c0,4.6,3.7,8.4,8.3,8.4c4.6,0,8.3,-3.8,8.3,-8.4Z" class="g0_1" />
<path d="M568.2,553.2c0,0,8.3,8.6,17,4.8c0,0,1,8.7,-12,8.3l-3.8,-5.1Z" class="g0_1" />
<path d="M567.7,569.5c0,0,-.8,9.2,-13.1,8.4c0,0,1.6,7,9.9,4.5c8.3,-2.5,4.8,-11.1,3.2,-12.9Z" class="g0_1" />
<path d="M547.8,591.6c0,0,-12.5,-.2,-19.4,-9.1c-6.9,-8.9,-14.2,-7.2,-15.7,-4.6c0,0,4.8,-2.4,7.2,2.5c2.4,4.9,-4.8,10,-10.8,7.1c-6,-3,-7.3,-13,.5,-17.8c7.9,-4.8,15.2,-1.2,23.6,11l14.1,8.5c0,0,.3,2.9,.5,2.4Z" class="g0_1" />
<path d="M349.8,592c2,0,4,-.2,6,-.8c8.8,-2.5,14.1,-8.8,14.2,-17c.1,-7.6,-4.6,-14.5,-11.2,-16.5c-1.7,-.5,-3.5,.4,-4,2.1c-.5,1.7,.5,3.5,2.2,4c3.8,1.2,6.7,5.6,6.6,10.3c0,5.3,-3.5,9.3,-9.6,10.9c-8.9,2.5,-16,-3.2,-18.8,-9.6c-2.9,-6.7,-2.4,-16.8,8.4,-23.3c17.2,-10.5,30.7,-1.3,53,13.9c1.7,1.1,3.3,2.2,5.1,3.4c28.3,19.1,56.3,22.1,76.9,8.2c13,-8.8,21.3,-26.6,20.1,-43.1c-.7,-10.9,-5.5,-18.9,-13.3,-22.8c-12.2,-5.9,-20.6,-2.6,-24.5,2.5c-3.7,4.9,-3.7,11.5,.1,15.7c3,3.4,6.1,4.1,8.3,4.2c5.2,.2,9.1,-3.4,9.5,-3.8c1.3,-1.3,1.3,-3.3,.1,-4.6c-1.2,-1.2,-3.3,-1.2,-4.5,0c-.7,.6,-2.7,2.1,-4.9,2c-1.3,0,-2.5,-.7,-3.7,-2c-1.7,-2,-1.7,-5.2,.1,-7.6c3.1,-4,9.3,-4.3,16.7,-.6c7.7,3.7,9.4,12.5,9.8,17.4c.8,12.2,-4.9,28.9,-17.4,37.4c-18.3,12.3,-43.7,9.4,-69.7,-8.2c-1.8,-1.2,-3.4,-2.3,-5.1,-3.4C377.5,545.2,361,534,340.3,546.6c-13.4,8.2,-15.2,21.6,-10.9,31.3c3.8,8.9,11.7,14.1,20.4,14.1Z" class="g0_1" />
<path d="M347.3,565.4c0,-4.6,3.7,-8.3,8.3,-8.3c4.7,0,8.4,3.7,8.4,8.3c0,4.6,-3.7,8.4,-8.4,8.4c-4.6,0,-8.3,-3.8,-8.3,-8.4Z" class="g0_1" />
<path d="M332.9,553.2c0,0,-8.2,8.6,-16.9,4.8c0,0,-1.1,8.7,12,8.3l3.7,-5.1Z" class="g0_1" />
<path d="M333.5,569.5c0,0,.7,9.2,13,8.4c0,0,-1.6,7,-9.8,4.5c-8.3,-2.5,-4.8,-11.1,-3.2,-12.9Z" class="g0_1" />
<path d="M353.3,591.6c0,0,12.5,-.2,19.5,-9.1c6.9,-8.9,14.2,-7.2,15.7,-4.6c0,0,-4.8,-2.4,-7.2,2.5c-2.4,4.9,4.8,10,10.8,7.1c6,-3,7.3,-13,-.6,-17.8c-7.8,-4.8,-15.2,-1.2,-23.5,11l-14.2,8.5c0,0,-.2,2.9,-.5,2.4Z" class="g0_1" />
<path d="M472.3,582.8c0,0,17.5,-1.5,19.8,8.3c0,0,5.7,-14,-7.9,-15.1c-13.6,-1.1,-11.9,6.8,-11.9,6.8Z" class="g0_1" />
<path d="M558.5,590.7c0,0,-12.1,7,-25.4,1.8c0,0,-3.1,-.8,-3.8,1.4c0,0,-1.5,-8.3,8.2,-6.6l14.5,2Z" class="g0_1" />
<path d="M475.3,525.1c0,0,4.8,-2.8,8.2,1.9c3.5,4.6,2.4,10.6,.7,12.4c0,0,-1.7,-4.8,-7.9,-4.4c0,0,-13.2,2.4,-17.4,-8.6l4.8,-2.1c0,0,4.9,5.6,11.6,.8Z" class="g0_1" />
<path d="M495.5,554.7c0,0,4,-12.8,12.8,-13.6c0,0,-6.7,-5.1,-12.1,.1c-5.5,5.2,-.7,13.5,-.7,13.5Z" class="g0_1" />
<path d="M428.9,582.8c0,0,-17.4,-1.5,-19.7,8.3c0,0,-5.7,-14,7.9,-15.1c13.5,-1.1,11.8,6.8,11.8,6.8Z" class="g0_1" />
<path d="M342.7,590.7c0,0,12.1,7,25.5,1.8c0,0,3,-.8,3.7,1.4c0,0,1.6,-8.3,-8.1,-6.6l-14.6,2Z" class="g0_1" />
<path d="M426,525.1c0,0,-4.8,-2.8,-8.3,1.9c-3.4,4.6,-2.4,10.6,-.6,12.4c0,0,1.7,-4.8,7.8,-4.4c0,0,13.2,2.4,17.5,-8.6l-4.8,-2.1c0,0,-5,5.6,-11.6,.8Z" class="g0_1" />
<path d="M405.7,554.7c0,0,-4,-12.8,-12.8,-13.6c0,0,6.7,-5.1,12.2,.1c5.4,5.2,.6,13.5,.6,13.5Z" class="g0_1" />
<path d="M446.9,506c0,-7.8,1.7,-14.2,3.7,-14.2c2,0,3.7,6.4,3.7,14.2c0,7.8,-1.7,14.2,-3.7,14.2c-2,0,-3.7,-6.4,-3.7,-14.2Z" class="g0_1" />
<path d="M450.5,295.8c22.1,13.6,0,34.7,0,34.7c0,0,-22,-21.1,0,-34.7Z" class="g0_1" />
<path d="M450.8,297.4c-3.7,18.6,-23.7,8.7,-23.7,8.7c0,0,8.9,-20.4,23.7,-8.7Z" class="g0_1" />
<path d="M450.3,297.4c3.7,18.6,23.7,8.7,23.7,8.7c0,0,-8.9,-20.4,-23.7,-8.7Z" class="g0_1" />
<path d="M442,295.8c0,-4.7,3.8,-8.5,8.5,-8.5c4.8,0,8.6,3.8,8.6,8.5c0,4.8,-3.8,8.6,-8.6,8.6c-4.7,0,-8.5,-3.8,-8.5,-8.6Z" class="g0_1" />
<path d="M349.8,272.7c1.9,0,3.9,.3,5.9,.8c8.9,2.5,14.2,8.8,14.3,17c0,7.6,-4.6,14.6,-11.2,16.5c-1.7,.6,-3.5,-.4,-4,-2.1c-.5,-1.7,.5,-3.5,2.1,-4c3.9,-1.1,6.7,-5.6,6.7,-10.3c-.1,-5.2,-3.6,-9.2,-9.6,-10.9c-9,-2.5,-16,3.3,-18.8,9.7c-2.9,6.6,-2.4,16.7,8.3,23.3c17.3,10.4,30.8,1.3,53.1,-13.9c1.7,-1.2,3.3,-2.3,5,-3.4c28.4,-19.2,56.4,-22.2,77,-8.2c13,8.8,21.3,26.5,20.1,43.1c-.7,10.8,-5.5,18.9,-13.3,22.7c-12.2,6,-20.7,2.6,-24.6,-2.5c-3.7,-4.8,-3.6,-11.4,.2,-15.7c2.9,-3.3,6.1,-4.1,8.2,-4.2c5.2,-.2,9.2,3.4,9.6,3.9c1.3,1.2,1.3,3.2,.1,4.5c-1.3,1.3,-3.3,1.3,-4.5,.1c-.7,-.6,-2.8,-2.2,-4.9,-2.1c-1.3,.1,-2.5,.7,-3.7,2.1c-1.8,2,-1.7,5.1,.1,7.5c3.1,4,9.3,4.3,16.7,.7c7.7,-3.8,9.4,-12.6,9.7,-17.5c.9,-12.1,-4.8,-28.9,-17.3,-37.4c-18.3,-12.3,-43.7,-9.3,-69.8,8.3c-1.7,1.1,-3.4,2.2,-5,3.3c-22.8,15.5,-39.2,26.7,-60,14.1C326.9,310,325.1,296.6,329.3,286.8c3.9,-8.8,11.8,-14.1,20.5,-14.1Z" class="g0_1" />
<path d="M347.3,299.3c0,4.6,3.7,8.4,8.3,8.4c4.6,0,8.4,-3.8,8.4,-8.4c0,-4.6,-3.8,-8.3,-8.4,-8.3c-4.6,0,-8.3,3.7,-8.3,8.3Z" class="g0_1" />
<path d="M332.9,311.5c0,0,-8.3,-8.5,-16.9,-4.8c0,0,-1.1,-8.6,12,-8.2l3.7,5Z" class="g0_1" />
<path d="M333.4,295.3c0,0,.8,-9.2,13.1,-8.4c0,0,-1.6,-7.1,-9.9,-4.6c-8.2,2.6,-4.8,11.1,-3.2,13Z" class="g0_1" />
<path d="M353.3,273.2c0,0,12.5,.1,19.4,9c6.9,8.9,14.3,7.2,15.8,4.7c0,0,-4.9,2.4,-7.3,-2.6c-2.3,-4.9,4.9,-9.9,10.8,-7c6,2.9,7.4,12.9,-.5,17.7c-7.9,4.8,-15.2,1.2,-23.6,-10.9l-14.1,-8.6c0,0,-.3,-2.9,-.5,-2.3Z" class="g0_1" />
<path d="M551.3,272.7c-1.9,0,-3.9,.3,-5.9,.8c-8.9,2.5,-14.2,8.8,-14.3,17c-.1,7.6,4.6,14.6,11.2,16.5c1.7,.6,3.5,-.4,4,-2.1c.5,-1.7,-.5,-3.5,-2.1,-4c-3.9,-1.1,-6.7,-5.6,-6.7,-10.3c.1,-5.2,3.5,-9.2,9.6,-10.9c8.9,-2.5,16,3.3,18.8,9.7c2.9,6.6,2.4,16.7,-8.3,23.3c-17.3,10.4,-30.8,1.3,-53.1,-13.9c-1.7,-1.2,-3.3,-2.3,-5.1,-3.4c-28.3,-19.2,-56.3,-22.2,-76.9,-8.2c-13,8.8,-21.3,26.5,-20.1,43.1c.7,10.8,5.5,18.9,13.3,22.7c12.2,6,20.7,2.6,24.6,-2.5c3.6,-4.8,3.6,-11.4,-.2,-15.7c-3,-3.3,-6.1,-4.1,-8.3,-4.2c-5.1,-.2,-9.1,3.4,-9.5,3.9c-1.2,1.2,-1.3,3.2,-.1,4.5c1.3,1.3,3.3,1.3,4.6,.1c.6,-.6,2.7,-2.2,4.8,-2.1c1.3,.1,2.5,.7,3.7,2.1c1.8,2,1.7,5.1,-.1,7.5c-3.1,4,-9.3,4.3,-16.7,.7c-7.7,-3.8,-9.4,-12.6,-9.7,-17.5c-.9,-12.1,4.8,-28.9,17.3,-37.4c18.3,-12.3,43.7,-9.3,69.8,8.3c1.7,1.1,3.4,2.2,5,3.3c22.8,15.5,39.2,26.7,60,14.1C574.2,310,576,296.6,571.8,286.8C567.9,278,560,272.7,551.3,272.7Z" class="g0_1" />
<path d="M553.8,299.3c0,4.6,-3.7,8.4,-8.3,8.4c-4.6,0,-8.4,-3.8,-8.4,-8.4c0,-4.6,3.8,-8.3,8.4,-8.3c4.6,0,8.3,3.7,8.3,8.3Z" class="g0_1" />
<path d="M568.2,311.5c0,0,8.3,-8.5,16.9,-4.8c0,0,1.1,-8.6,-12,-8.2l-3.7,5Z" class="g0_1" />
<path d="M567.7,295.3c0,0,-.8,-9.2,-13.1,-8.4c0,0,1.6,-7.1,9.9,-4.6c8.2,2.6,4.8,11.1,3.2,13Z" class="g0_1" />
<path d="M547.8,273.2c0,0,-12.5,.1,-19.4,9c-7,8.9,-14.3,7.2,-15.8,4.7c0,0,4.9,2.4,7.2,-2.6c2.5,-4.9,-4.7,-9.9,-10.7,-7c-6,2.9,-7.4,12.9,.5,17.7c7.9,4.8,15.2,1.2,23.6,-10.9l14.1,-8.6c0,0,.3,-2.9,.5,-2.3Z" class="g0_1" />
<path d="M428.8,282c0,0,-17.5,1.4,-19.7,-8.3c0,0,-5.8,14,7.8,15c13.6,1.1,11.9,-6.7,11.9,-6.7Z" class="g0_1" />
<path d="M342.6,274.1c0,0,12.1,-7.1,25.4,-1.9c0,0,3.1,.8,3.8,-1.3c0,0,1.6,8.2,-8.1,6.5l-14.6,-2Z" class="g0_1" />
<path d="M425.9,339.6c0,0,-4.8,2.8,-8.3,-1.8c-3.5,-4.7,-2.4,-10.7,-.7,-12.4c0,0,1.8,4.8,7.9,4.4c0,0,13.2,-2.4,17.5,8.5l-4.9,2.1c0,0,-4.9,-5.6,-11.5,-.8Z" class="g0_1" />
<path d="M405.6,310.1c0,0,-4,12.7,-12.8,13.5c0,0,6.7,5.1,12.1,-.1c5.5,-5.2,.7,-13.4,.7,-13.4Z" class="g0_1" />
<path d="M472.2,282c0,0,17.5,1.4,19.7,-8.3c0,0,5.8,14,-7.8,15C470.5,289.8,472.2,282,472.2,282Z" class="g0_1" />
<path d="M558.4,274.1c0,0,-12.1,-7.1,-25.4,-1.9c0,0,-3.1,.8,-3.8,-1.3c0,0,-1.6,8.2,8.2,6.5l14.5,-2Z" class="g0_1" />
<path d="M475.1,339.6c0,0,4.8,2.8,8.3,-1.8c3.5,-4.7,2.4,-10.7,.7,-12.4c0,0,-1.8,4.8,-7.9,4.4c0,0,-13.2,-2.4,-17.4,8.5l4.8,2.1c0,0,4.9,-5.6,11.5,-.8Z" class="g0_1" />
<path d="M495.4,310.1c0,0,4,12.7,12.8,13.5c0,0,-6.7,5.1,-12.1,-.1c-5.5,-5.2,-.7,-13.4,-.7,-13.4Z" class="g0_1" />
<path d="M454.2,358.8c0,7.8,-1.6,14.1,-3.7,14.1c-2,0,-3.6,-6.3,-3.6,-14.1c0,-7.9,1.6,-14.2,3.6,-14.2c2.1,0,3.7,6.3,3.7,14.2Z" class="g0_1" />
<path d="M450.6,247.6c-22.1,-13.6,0,-34.6,0,-34.6c0,0,22,21,0,34.6Z" class="g0_1" />
<path d="M450.3,246C454,227.5,474,237.3,474,237.3c0,0,-8.9,20.4,-23.7,8.7Z" class="g0_1" />
<path d="M450.9,246c-3.8,-18.5,-23.8,-8.7,-23.8,-8.7c0,0,8.9,20.4,23.8,8.7Z" class="g0_1" />
<path d="M459.1,247.6c0,4.7,-3.8,8.5,-8.5,8.5c-4.7,0,-8.6,-3.8,-8.6,-8.5c0,-4.7,3.9,-8.5,8.6,-8.5c4.7,0,8.5,3.8,8.5,8.5Z" class="g0_1" />
<path d="M551.3,270.7c-1.9,0,-3.9,-.3,-5.9,-.8c-8.8,-2.5,-14.2,-8.8,-14.2,-17c-.1,-7.6,4.6,-14.5,11.1,-16.5c1.7,-.5,3.5,.4,4,2.1c.5,1.7,-.4,3.5,-2.1,4c-3.9,1.2,-6.7,5.6,-6.7,10.3c.1,5.3,3.6,9.3,9.6,10.9c9,2.5,16,-3.2,18.8,-9.6c2.9,-6.7,2.5,-16.8,-8.3,-23.3c-17.3,-10.5,-30.7,-1.3,-53.1,13.9c-1.6,1.1,-3.3,2.2,-5,3.4c-28.3,19.1,-56.4,22.1,-76.9,8.2c-13.1,-8.8,-21.3,-26.6,-20.2,-43.1c.8,-10.9,5.5,-19,13.4,-22.8c12.1,-5.9,20.6,-2.6,24.5,2.5c3.7,4.9,3.6,11.4,-.2,15.7c-2.9,3.3,-6.1,4.1,-8.2,4.2c-5.2,.2,-9.1,-3.4,-9.6,-3.8c-1.2,-1.3,-1.2,-3.3,0,-4.6c1.2,-1.2,3.2,-1.3,4.5,0c.6,.6,2.7,2.1,4.9,2c1.3,0,2.5,-.7,3.7,-2.1c1.7,-1.9,1.6,-5.1,-.2,-7.5c-3,-4,-9.3,-4.3,-16.6,-.7c-7.7,3.8,-9.5,12.6,-9.8,17.5c-.8,12.2,4.8,28.9,17.4,37.4c18.2,12.3,43.7,9.3,69.7,-8.2c1.7,-1.2,3.4,-2.3,5,-3.4c22.8,-15.5,39.2,-26.7,60,-14.1c13.4,8.1,15.1,21.6,10.9,31.3c-3.8,8.8,-11.8,14.1,-20.5,14.1Z" class="g0_1" />
<path d="M553.8,244.1c0,-4.6,-3.7,-8.3,-8.3,-8.3c-4.6,0,-8.3,3.7,-8.3,8.3c0,4.6,3.7,8.4,8.3,8.4c4.6,0,8.3,-3.8,8.3,-8.4Z" class="g0_1" />
<path d="M568.2,231.9c0,0,8.3,8.5,17,4.8c0,0,1,8.7,-12,8.3l-3.8,-5.1Z" class="g0_1" />
<path d="M567.7,248.2c0,0,-.8,9.2,-13.1,8.4c0,0,1.6,7,9.9,4.5c8.3,-2.5,4.8,-11.1,3.2,-12.9Z" class="g0_1" />
<path d="M547.8,270.3c0,0,-12.5,-.2,-19.4,-9.1c-6.9,-8.9,-14.2,-7.2,-15.7,-4.6c0,0,4.8,-2.4,7.2,2.5c2.4,4.9,-4.8,10,-10.8,7.1c-6,-3,-7.3,-13,.5,-17.8c7.9,-4.8,15.2,-1.2,23.6,11l14.1,8.5c0,0,.3,2.9,.5,2.4Z" class="g0_1" />
<path d="M349.8,270.7c2,0,4,-.3,6,-.8c8.8,-2.5,14.1,-8.8,14.2,-17c.1,-7.6,-4.6,-14.5,-11.2,-16.5c-1.7,-.5,-3.5,.4,-4,2.1c-.5,1.7,.5,3.5,2.2,4c3.8,1.2,6.7,5.6,6.6,10.3c0,5.3,-3.5,9.3,-9.6,10.9c-8.9,2.5,-16,-3.2,-18.8,-9.6c-2.9,-6.7,-2.4,-16.8,8.4,-23.3c17.2,-10.5,30.7,-1.3,53,13.9c1.7,1.1,3.3,2.2,5.1,3.4c28.3,19.1,56.3,22.1,76.9,8.2c13,-8.8,21.3,-26.6,20.1,-43.1c-.7,-10.9,-5.5,-19,-13.3,-22.8c-12.2,-5.9,-20.6,-2.6,-24.5,2.5c-3.7,4.9,-3.7,11.4,.1,15.7c3,3.3,6.1,4.1,8.3,4.2c5.2,.2,9.1,-3.4,9.5,-3.8c1.3,-1.3,1.3,-3.3,.1,-4.6c-1.2,-1.2,-3.3,-1.3,-4.5,0c-.7,.6,-2.7,2.1,-4.9,2c-1.3,0,-2.5,-.7,-3.7,-2.1c-1.7,-1.9,-1.7,-5.1,.1,-7.5c3.1,-4,9.3,-4.3,16.7,-.7c7.7,3.8,9.4,12.6,9.8,17.5c.8,12.2,-4.9,28.9,-17.4,37.4c-18.3,12.3,-43.7,9.3,-69.7,-8.2c-1.8,-1.2,-3.4,-2.3,-5.1,-3.4C377.5,223.9,361,212.7,340.3,225.3c-13.4,8.1,-15.2,21.6,-10.9,31.3c3.8,8.8,11.7,14.1,20.4,14.1Z" class="g0_1" />
<path d="M347.3,244.1c0,-4.6,3.7,-8.3,8.3,-8.3c4.7,0,8.4,3.7,8.4,8.3c0,4.6,-3.7,8.4,-8.4,8.4c-4.6,0,-8.3,-3.8,-8.3,-8.4Z" class="g0_1" />
<path d="M332.9,231.9c0,0,-8.2,8.5,-16.9,4.8c0,0,-1.1,8.7,12,8.3l3.7,-5.1Z" class="g0_1" />
<path d="M333.5,248.2c0,0,.7,9.2,13,8.4c0,0,-1.6,7,-9.8,4.5c-8.3,-2.5,-4.8,-11.1,-3.2,-12.9Z" class="g0_1" />
<path d="M353.3,270.3c0,0,12.5,-.2,19.5,-9.1c6.9,-8.9,14.2,-7.2,15.7,-4.6c0,0,-4.8,-2.4,-7.2,2.5c-2.4,4.9,4.8,10,10.8,7.1c6,-3,7.3,-13,-.6,-17.8c-7.8,-4.8,-15.2,-1.2,-23.5,11l-14.2,8.5c0,0,-.2,2.9,-.5,2.4Z" class="g0_1" />
<path d="M472.3,261.5c0,0,17.5,-1.5,19.8,8.2c0,0,5.7,-13.9,-7.9,-15c-13.6,-1.1,-11.9,6.8,-11.9,6.8Z" class="g0_1" />
<path d="M558.5,269.3c0,0,-12.1,7.1,-25.4,1.9c0,0,-3.1,-.8,-3.8,1.3c0,0,-1.5,-8.2,8.2,-6.5l14.5,2Z" class="g0_1" />
<path d="M475.3,203.8c0,0,4.8,-2.8,8.2,1.9c3.5,4.6,2.4,10.6,.7,12.4c0,0,-1.7,-4.8,-7.9,-4.4c0,0,-13.2,2.4,-17.4,-8.6l4.8,-2.1c0,0,4.9,5.6,11.6,.8Z" class="g0_1" />
<path d="M495.5,233.4c0,0,4,-12.8,12.8,-13.6c0,0,-6.7,-5.1,-12.1,.1c-5.5,5.2,-.7,13.5,-.7,13.5Z" class="g0_1" />
<path d="M428.9,261.5c0,0,-17.4,-1.5,-19.7,8.2c0,0,-5.7,-13.9,7.9,-15c13.5,-1.1,11.8,6.8,11.8,6.8Z" class="g0_1" />
<path d="M342.7,269.3c0,0,12.1,7.1,25.5,1.9c0,0,3,-.8,3.7,1.3c0,0,1.6,-8.2,-8.1,-6.5l-14.6,2Z" class="g0_1" />
<path d="M426,203.8c0,0,-4.8,-2.8,-8.3,1.9c-3.4,4.6,-2.4,10.6,-.6,12.4c0,0,1.7,-4.8,7.8,-4.4c0,0,13.2,2.4,17.5,-8.6L437.6,203c0,0,-5,5.6,-11.6,.8Z" class="g0_1" />
<path d="M405.7,233.4c0,0,-4,-12.8,-12.8,-13.6c0,0,6.7,-5.1,12.2,.1c5.4,5.2,.6,13.5,.6,13.5Z" class="g0_1" />
<path d="M446.9,184.7c0,-7.8,1.7,-14.2,3.7,-14.2c2,0,3.7,6.4,3.7,14.2c0,7.8,-1.7,14.1,-3.7,14.1c-2,0,-3.7,-6.3,-3.7,-14.1Z" class="g0_1" />
<path d="M605.4,432.4c0,-85.6,-69.3,-154.9,-154.8,-154.9c-85.6,0,-154.9,69.3,-154.9,154.9c0,85.5,69.3,154.8,154.9,154.8c85.5,0,154.8,-69.3,154.8,-154.8Z" class="g0_1" />
<path d="M587.6,432.4c0,-75.7,-61.3,-137.1,-137,-137.1c-75.7,0,-137.1,61.4,-137.1,137.1c0,75.7,61.4,137,137.1,137c75.7,0,137,-61.3,137,-137Z" class="g1_1" />
<path d="M265.8,432.4c-13.6,22,-34.7,0,-34.7,0c0,0,21.1,-22.1,34.7,0Z" class="g2_1" />
<path d="M264.2,432.6c-18.6,-3.7,-8.7,-23.7,-8.7,-23.7c0,0,20.4,8.9,8.7,23.7Z" class="g2_1" />
<path d="M264.2,432.1c-18.6,3.7,-8.7,23.7,-8.7,23.7c0,0,20.4,-8.9,8.7,-23.7Z" class="g2_1" />
<path d="M265.8,423.8c4.7,0,8.5,3.8,8.5,8.6c0,4.7,-3.8,8.5,-8.5,8.5c-4.7,0,-8.6,-3.8,-8.6,-8.5c0,-4.8,3.9,-8.6,8.6,-8.6Z" class="g2_1" />
<path d="M288.9,331.6c0,1.9,-.3,3.9,-.8,5.9c-2.5,8.9,-8.8,14.2,-17,14.3c-7.6,.1,-14.5,-4.6,-16.5,-11.2c-.5,-1.7,.4,-3.5,2.1,-4c1.7,-.5,3.5,.5,4,2.2c1.1,3.8,5.6,6.6,10.3,6.6c5.3,-.1,9.2,-3.6,10.9,-9.6c2.5,-8.9,-3.3,-16,-9.7,-18.8c-6.6,-2.9,-16.7,-2.4,-23.2,8.4c-10.5,17.2,-1.3,30.7,13.9,53c1.1,1.7,2.2,3.3,3.4,5c19.1,28.4,22.1,56.4,8.2,77c-8.9,13,-26.6,21.3,-43.2,20.1c-10.8,-.7,-18.9,-5.5,-22.7,-13.3c-6,-12.2,-2.6,-20.7,2.5,-24.6c4.8,-3.6,11.4,-3.6,15.7,.2c3.3,3,4.1,6.1,4.2,8.3c.2,5.2,-3.4,9.1,-3.8,9.5c-1.3,1.3,-3.3,1.3,-4.6,.1c-1.2,-1.3,-1.3,-3.3,0,-4.5c.6,-.7,2.1,-2.8,2,-4.9c-.1,-1.3,-.7,-2.5,-2.1,-3.7c-1.9,-1.8,-5.1,-1.7,-7.5,.1c-4,3.1,-4.3,9.3,-.7,16.7c3.8,7.7,12.6,9.4,17.5,9.7c12.2,.9,28.9,-4.8,37.4,-17.3C281.5,438.5,278.5,413.1,261,387c-1.2,-1.7,-2.3,-3.4,-3.4,-5C242.1,359.2,230.9,342.8,243.5,322c8.1,-13.3,21.6,-15.1,31.3,-10.9c8.8,3.9,14.1,11.8,14.1,20.5Z" class="g2_1" />
<path d="M262.3,329.1c-4.6,0,-8.3,3.7,-8.3,8.3c0,4.6,3.7,8.4,8.3,8.4c4.6,0,8.3,-3.8,8.3,-8.4c0,-4.6,-3.7,-8.3,-8.3,-8.3Z" class="g2_1" />
<path d="M250.1,314.7c0,0,8.5,-8.3,4.8,-16.9c0,0,8.7,-1.1,8.3,12l-5.1,3.7Z" class="g2_1" />
<path d="M266.4,315.2c0,0,9.2,.8,8.4,13.1c0,0,7,-1.6,4.5,-9.9c-2.5,-8.2,-11.1,-4.8,-12.9,-3.2Z" class="g2_1" />
<path d="M288.5,335.1c0,0,-.2,12.5,-9.1,19.4c-8.9,7,-7.2,14.3,-4.6,15.8c0,0,-2.4,-4.8,2.5,-7.3c4.9,-2.3,10,4.8,7,10.8c-2.9,6,-12.9,7.4,-17.7,-.5c-4.8,-7.8,-1.2,-15.2,10.9,-23.6l8.6,-14.1c0,0,2.9,-.3,2.4,-.5Z" class="g2_1" />
<path d="M288.9,533.1c0,-1.9,-.3,-3.9,-.8,-5.9c-2.5,-8.9,-8.8,-14.2,-17,-14.3c-7.6,0,-14.5,4.6,-16.5,11.2c-.5,1.7,.4,3.5,2.1,4c1.7,.5,3.5,-.4,4,-2.1c1.1,-3.9,5.6,-6.7,10.3,-6.7c5.3,.1,9.2,3.6,10.9,9.6c2.5,8.9,-3.3,16,-9.7,18.8c-6.6,2.9,-16.7,2.4,-23.2,-8.3c-10.5,-17.3,-1.3,-30.8,13.9,-53.1c1.1,-1.6,2.2,-3.3,3.4,-5c19.1,-28.4,22.1,-56.4,8.2,-76.9C265.6,391.3,247.9,383,231.3,384.2c-10.8,.7,-18.9,5.5,-22.7,13.4c-6,12.1,-2.6,20.6,2.5,24.5c4.8,3.7,11.4,3.6,15.7,-.2c3.3,-2.9,4.1,-6.1,4.2,-8.3c.2,-5.1,-3.4,-9.1,-3.8,-9.5c-1.3,-1.2,-3.3,-1.3,-4.6,-.1c-1.2,1.3,-1.3,3.3,0,4.6c.6,.6,2.1,2.7,2,4.8c-.1,1.3,-.7,2.5,-2.1,3.7c-1.9,1.8,-5.1,1.7,-7.5,-.1c-4,-3.1,-4.3,-9.3,-.7,-16.6c3.8,-7.8,12.6,-9.5,17.5,-9.8c12.2,-.9,28.9,4.8,37.4,17.3c12.3,18.3,9.3,43.7,-8.2,69.8c-1.2,1.7,-2.3,3.4,-3.4,5c-15.5,22.8,-26.7,39.2,-14.1,60c8.1,13.4,21.6,15.1,31.3,10.9c8.8,-3.9,14.1,-11.8,14.1,-20.5Z" class="g2_1" />
<path d="M262.3,535.6c-4.6,0,-8.3,-3.7,-8.3,-8.3c0,-4.6,3.7,-8.4,8.3,-8.4c4.6,0,8.3,3.8,8.3,8.4c0,4.6,-3.7,8.3,-8.3,8.3Z" class="g2_1" />
<path d="M250.1,550c0,0,8.5,8.3,4.8,16.9c0,0,8.7,1.1,8.3,-12l-5.1,-3.7Z" class="g2_1" />
<path d="M266.4,549.5c0,0,9.2,-.8,8.4,-13.1c0,0,7,1.6,4.5,9.9c-2.5,8.2,-11.1,4.8,-12.9,3.2Z" class="g2_1" />
<path d="M288.5,529.6c0,0,-.2,-12.5,-9.1,-19.4c-8.9,-7,-7.2,-14.3,-4.6,-15.7c0,0,-2.4,4.7,2.5,7.2c4.9,2.4,10,-4.8,7,-10.8c-2.9,-6,-12.9,-7.4,-17.7,.5c-4.8,7.8,-1.2,15.2,10.9,23.6l8.6,14.1c0,0,2.9,.3,2.4,.5Z" class="g2_1" />
<path d="M279.7,410.6c0,0,-1.5,-17.4,8.2,-19.7c0,0,-14,-5.8,-15,7.8c-1.1,13.6,6.8,11.9,6.8,11.9Z" class="g2_1" />
<path d="M287.5,324.4c0,0,7.1,12.1,1.9,25.5c0,0,-.8,3,1.3,3.7c0,0,-8.2,1.6,-6.5,-8.1l2,-14.6Z" class="g2_1" />
<path d="M222,407.7c0,0,-2.8,-4.8,1.9,-8.3c4.6,-3.5,10.6,-2.4,12.3,-.7c0,0,-4.7,1.8,-4.3,7.9c0,0,2.4,13.2,-8.6,17.5l-2.1,-4.8c0,0,5.6,-5,.8,-11.6Z" class="g2_1" />
<path d="M251.6,387.4c0,0,-12.8,-4,-13.6,-12.8c0,0,-5.1,6.7,.1,12.1c5.2,5.5,13.5,.7,13.5,.7Z" class="g2_1" />
<path d="M279.7,454c0,0,-1.5,17.5,8.2,19.7c0,0,-14,5.8,-15,-7.8c-1.1,-13.6,6.8,-11.9,6.8,-11.9Z" class="g2_1" />
<path d="M287.5,540.2c0,0,7.1,-12.1,1.9,-25.4c0,0,-.8,-3.1,1.3,-3.8c0,0,-8.2,-1.6,-6.5,8.2l2,14.5Z" class="g2_1" />
<path d="M222,457c0,0,-2.8,4.8,1.9,8.2c4.6,3.5,10.6,2.4,12.3,.7c0,0,-4.7,-1.8,-4.3,-7.9c0,0,2.4,-13.2,-8.6,-17.4l-2.1,4.8c0,0,5.6,4.9,.8,11.6Z" class="g2_1" />
<path d="M251.6,477.2c0,0,-12.8,4,-13.6,12.8c0,0,-5.1,-6.7,.1,-12.1c5.2,-5.5,13.5,-.7,13.5,-.7Z" class="g2_1" />
<path d="M202.9,436c-7.9,0,-14.2,-1.6,-14.2,-3.6c0,-2.1,6.3,-3.7,14.2,-3.7c7.8,0,14.1,1.6,14.1,3.7c0,2,-6.3,3.6,-14.1,3.6Z" class="g2_1" />
<path d="M314,432.4c13.6,-22.1,34.7,0,34.7,0c0,0,-21.1,22.1,-34.7,0Z" class="g2_1" />
<path d="M315.6,432.1c18.6,3.8,8.7,23.7,8.7,23.7c0,0,-20.4,-8.9,-8.7,-23.7Z" class="g2_1" />
<path d="M315.6,432.7c18.6,-3.8,8.7,-23.8,8.7,-23.8c0,0,-20.4,8.9,-8.7,23.8Z" class="g2_1" />
<path d="M314,440.9c-4.7,0,-8.5,-3.8,-8.5,-8.5c0,-4.7,3.8,-8.5,8.5,-8.5c4.7,0,8.6,3.8,8.6,8.5c0,4.7,-3.9,8.5,-8.6,8.5Z" class="g2_1" />
<path d="M290.9,533.2c0,-2,.3,-4,.8,-6c2.5,-8.8,8.8,-14.2,17,-14.2c7.6,-.1,14.6,4.6,16.5,11.1c.5,1.7,-.4,3.5,-2.1,4c-1.7,.5,-3.5,-.4,-4,-2.1c-1.1,-3.8,-5.6,-6.7,-10.3,-6.7c-5.3,.1,-9.2,3.6,-10.9,9.6c-2.5,9,3.2,16.1,9.7,18.8c6.6,2.9,16.7,2.5,23.2,-8.3c10.5,-17.2,1.3,-30.7,-13.8,-53.1c-1.2,-1.6,-2.3,-3.3,-3.5,-5C294.4,453,291.4,424.9,305.4,404.4c8.7,-13,26.5,-21.3,43.1,-20.2c10.8,.8,18.9,5.5,22.7,13.4c6,12.1,2.6,20.6,-2.5,24.5c-4.8,3.7,-11.4,3.6,-15.7,-.1c-3.3,-3,-4.1,-6.2,-4.2,-8.3c-.2,-5.2,3.4,-9.1,3.9,-9.6c1.2,-1.2,3.2,-1.2,4.5,0c1.2,1.2,1.3,3.2,.1,4.5c-.6,.6,-2.2,2.7,-2.1,4.9c.1,1.3,.7,2.5,2.1,3.7c1.9,1.7,5.1,1.6,7.5,-.2c4,-3,4.3,-9.3,.7,-16.6c-3.8,-7.7,-12.6,-9.5,-17.5,-9.8c-12.1,-.8,-28.9,4.8,-37.4,17.4c-12.3,18.2,-9.3,43.7,8.2,69.7c1.2,1.7,2.3,3.4,3.4,5c15.5,22.8,26.7,39.3,14.1,60c-8.1,13.4,-21.6,15.1,-31.3,10.9c-8.8,-3.8,-14.1,-11.8,-14.1,-20.4Z" class="g2_1" />
<path d="M317.5,535.7c4.6,0,8.3,-3.8,8.3,-8.4c0,-4.6,-3.7,-8.3,-8.3,-8.3c-4.6,0,-8.3,3.7,-8.3,8.3c0,4.6,3.7,8.4,8.3,8.4Z" class="g2_1" />
<path d="M329.7,550c0,0,-8.5,8.3,-4.8,17c0,0,-8.6,1,-8.2,-12l5,-3.8Z" class="g2_1" />
<path d="M313.5,549.5c0,0,-9.2,-.8,-8.4,-13.1c0,0,-7.1,1.7,-4.6,9.9c2.6,8.3,11.1,4.8,13,3.2Z" class="g2_1" />
<path d="M291.3,529.7c0,0,.2,-12.6,9.1,-19.5c8.9,-6.9,7.2,-14.2,4.7,-15.7c0,0,2.4,4.8,-2.6,7.2c-4.9,2.4,-10,-4.8,-7,-10.8c2.9,-6,12.9,-7.3,17.7,.5c4.8,7.9,1.2,15.2,-10.9,23.6l-8.6,14.1c0,0,-2.9,.3,-2.4,.6Z" class="g2_1" />
<path d="M290.9,331.6c0,2,.3,4,.8,6c2.5,8.8,8.8,14.1,17,14.2c7.6,.1,14.6,-4.6,16.5,-11.2c.5,-1.7,-.4,-3.4,-2.1,-4c-1.7,-.5,-3.5,.5,-4,2.2c-1.1,3.8,-5.6,6.7,-10.3,6.6c-5.3,0,-9.2,-3.5,-10.9,-9.5c-2.5,-9,3.2,-16.1,9.7,-18.9c6.6,-2.8,16.7,-2.4,23.2,8.4c10.5,17.2,1.3,30.7,-13.8,53.1c-1.2,1.6,-2.3,3.3,-3.5,5c-19.1,28.3,-22.1,56.3,-8.1,76.9c8.7,13,26.5,21.3,43.1,20.1c10.8,-.7,18.9,-5.4,22.7,-13.3c6,-12.1,2.6,-20.6,-2.5,-24.5c-4.8,-3.7,-11.4,-3.6,-15.7,.1c-3.3,3,-4.1,6.2,-4.2,8.3c-.2,5.2,3.4,9.1,3.9,9.5c1.2,1.3,3.2,1.3,4.5,.1c1.2,-1.2,1.3,-3.3,.1,-4.5c-.6,-.7,-2.2,-2.7,-2.1,-4.9c.1,-1.3,.7,-2.5,2.1,-3.7c1.9,-1.7,5.1,-1.7,7.5,.2c4,3,4.3,9.2,.7,16.6c-3.8,7.7,-12.6,9.4,-17.5,9.8c-12.1,.8,-28.9,-4.9,-37.4,-17.4c-12.3,-18.3,-9.3,-43.7,8.2,-69.7c1.2,-1.7,2.3,-3.4,3.4,-5.1c15.5,-22.7,26.7,-39.2,14.1,-59.9C328.2,308.7,314.7,307,305,311.2c-8.8,3.8,-14.1,11.7,-14.1,20.4Z" class="g2_1" />
<path d="M317.5,329.1c4.6,0,8.3,3.7,8.3,8.4c0,4.6,-3.7,8.3,-8.3,8.3c-4.6,0,-8.3,-3.7,-8.3,-8.3c0,-4.7,3.7,-8.4,8.3,-8.4Z" class="g2_1" />
<path d="M329.7,314.7c0,0,-8.5,-8.2,-4.8,-16.9c0,0,-8.6,-1.1,-8.2,12l5,3.7Z" class="g2_1" />
<path d="M313.5,315.3c0,0,-9.2,.8,-8.4,13c0,0,-7.1,-1.6,-4.6,-9.8c2.6,-8.3,11.1,-4.8,13,-3.2Z" class="g2_1" />
<path d="M291.3,335.1c0,0,.2,12.5,9.1,19.5c8.9,6.9,7.2,14.2,4.7,15.7c0,0,2.4,-4.8,-2.6,-7.2c-4.9,-2.4,-10,4.8,-7,10.8c2.9,6,12.9,7.3,17.7,-.6c4.8,-7.8,1.2,-15.1,-10.9,-23.5l-8.6,-14.2c0,0,-2.9,-.2,-2.4,-.5Z" class="g2_1" />
<path d="M300.1,454.1c0,0,1.5,17.5,-8.2,19.8c0,0,14,5.7,15,-7.9c1.1,-13.6,-6.8,-11.9,-6.8,-11.9Z" class="g2_1" />
<path d="M292.3,540.3c0,0,-7.1,-12.1,-1.9,-25.4c0,0,.8,-3.1,-1.3,-3.7c0,0,8.2,-1.6,6.5,8.1l-2,14.5Z" class="g2_1" />
<path d="M357.8,457.1c0,0,2.8,4.8,-1.8,8.2c-4.7,3.5,-10.7,2.4,-12.4,.7c0,0,4.8,-1.7,4.4,-7.9c0,0,-2.4,-13.1,8.5,-17.4l2.1,4.8c0,0,-5.6,4.9,-.8,11.6Z" class="g2_1" />
<path d="M328.2,477.3c0,0,12.8,4,13.6,12.8c0,0,5.1,-6.6,-.1,-12.1c-5.2,-5.5,-13.5,-.7,-13.5,-.7Z" class="g2_1" />
<path d="M300.1,410.7c0,0,1.5,-17.4,-8.2,-19.7c0,0,14,-5.7,15,7.9c1.1,13.5,-6.8,11.8,-6.8,11.8Z" class="g2_1" />
<path d="M292.3,324.5c0,0,-7.1,12.2,-1.9,25.5c0,0,.8,3,-1.3,3.7c0,0,8.2,1.6,6.5,-8.1l-2,-14.5Z" class="g2_1" />
<path d="M357.8,407.8c0,0,2.8,-4.8,-1.8,-8.3c-4.7,-3.4,-10.7,-2.4,-12.4,-.6c0,0,4.8,1.7,4.4,7.8c0,0,-2.4,13.2,8.5,17.5l2.1,-4.8c0,0,-5.6,-4.9,-.8,-11.6Z" class="g2_1" />
<path d="M328.2,387.5c0,0,12.8,-4,13.6,-12.7c0,0,5.1,6.6,-.1,12.1c-5.2,5.4,-13.5,.6,-13.5,.6Z" class="g2_1" />
<path d="M377,428.7c7.8,0,14.1,1.7,14.1,3.7c0,2,-6.3,3.7,-14.1,3.7c-7.9,0,-14.2,-1.7,-14.2,-3.7c0,-2,6.3,-3.7,14.2,-3.7Z" class="g2_1" />
<path d="M587.1,432.4c-13.6,22,-34.6,0,-34.6,0c0,0,21,-22.1,34.6,0Z" class="g2_1" />
<path d="M585.5,432.6c-18.5,-3.7,-8.7,-23.7,-8.7,-23.7c0,0,20.4,8.9,8.7,23.7Z" class="g2_1" />
<path d="M585.5,432.1c-18.5,3.7,-8.7,23.7,-8.7,23.7c0,0,20.4,-8.9,8.7,-23.7Z" class="g2_1" />
<path d="M587.1,423.8c4.7,0,8.5,3.8,8.5,8.6c0,4.7,-3.8,8.5,-8.5,8.5c-4.7,0,-8.5,-3.8,-8.5,-8.5c0,-4.8,3.8,-8.6,8.5,-8.6Z" class="g2_1" />
<path d="M610.2,331.6c0,1.9,-.3,3.9,-.8,5.9c-2.5,8.9,-8.8,14.2,-17,14.3c-7.6,.1,-14.5,-4.6,-16.5,-11.2c-.5,-1.7,.4,-3.5,2.1,-4c1.7,-.5,3.5,.5,4,2.2c1.2,3.8,5.6,6.6,10.3,6.6c5.3,-.1,9.3,-3.6,10.9,-9.6c2.5,-8.9,-3.2,-16,-9.6,-18.8c-6.7,-2.9,-16.8,-2.4,-23.3,8.4c-10.5,17.2,-1.3,30.7,13.9,53c1.1,1.7,2.2,3.3,3.4,5c19.1,28.4,22.1,56.4,8.2,77c-8.8,13,-26.6,21.3,-43.1,20.1c-10.9,-.7,-19,-5.5,-22.8,-13.3C524,455,527.3,446.5,532.4,442.6c4.9,-3.6,11.4,-3.6,15.7,.2c3.3,3,4.1,6.1,4.2,8.3c.2,5.2,-3.4,9.1,-3.8,9.5c-1.3,1.3,-3.3,1.3,-4.6,.1c-1.2,-1.3,-1.3,-3.3,0,-4.5c.6,-.7,2.1,-2.8,2,-4.9c0,-1.3,-.7,-2.5,-2.1,-3.7c-1.9,-1.8,-5.1,-1.7,-7.5,.1c-4,3.1,-4.3,9.3,-.6,16.7c3.7,7.7,12.5,9.4,17.4,9.7c12.2,.9,28.9,-4.8,37.4,-17.3c12.3,-18.3,9.4,-43.7,-8.2,-69.8c-1.2,-1.7,-2.3,-3.4,-3.4,-5C563.4,359.2,552.2,342.8,564.8,322c8.1,-13.3,21.6,-15.1,31.3,-10.9c8.9,3.9,14.1,11.8,14.1,20.5Z" class="g2_1" />
<path d="M583.6,329.1c-4.6,0,-8.3,3.7,-8.3,8.3c0,4.6,3.7,8.4,8.3,8.4c4.6,0,8.4,-3.8,8.4,-8.4c0,-4.6,-3.8,-8.3,-8.4,-8.3Z" class="g2_1" />
<path d="M571.4,314.7c0,0,8.5,-8.3,4.8,-16.9c0,0,8.7,-1.1,8.3,12l-5.1,3.7Z" class="g2_1" />
<path d="M587.7,315.2c0,0,9.2,.8,8.4,13.1c0,0,7,-1.6,4.5,-9.9c-2.5,-8.2,-11.1,-4.8,-12.9,-3.2Z" class="g2_1" />
<path d="M609.8,335.1c0,0,-.2,12.5,-9.1,19.4c-8.9,7,-7.2,14.3,-4.6,15.8c0,0,-2.4,-4.8,2.5,-7.3c4.9,-2.3,10,4.8,7,10.8c-2.9,6,-12.9,7.4,-17.7,-.5c-4.8,-7.8,-1.2,-15.2,11,-23.6l8.5,-14.1c0,0,2.9,-.3,2.4,-.5Z" class="g2_1" />
<path d="M610.2,533.1c0,-1.9,-.3,-3.9,-.8,-5.9c-2.5,-8.9,-8.8,-14.2,-17,-14.3c-7.6,0,-14.5,4.6,-16.5,11.2c-.5,1.7,.4,3.5,2.1,4c1.7,.5,3.5,-.4,4,-2.1c1.2,-3.9,5.6,-6.7,10.3,-6.7c5.3,.1,9.3,3.6,10.9,9.6c2.5,8.9,-3.2,16,-9.6,18.8c-6.7,2.9,-16.8,2.4,-23.3,-8.3C559.8,522.1,569,508.6,584.2,486.3c1.1,-1.6,2.2,-3.3,3.4,-5c19.1,-28.4,22.1,-56.4,8.2,-76.9C587,391.3,569.2,383,552.7,384.2c-10.9,.7,-19,5.5,-22.8,13.4c-5.9,12.1,-2.6,20.6,2.5,24.5c4.9,3.7,11.4,3.6,15.7,-.2c3.3,-2.9,4.1,-6.1,4.2,-8.3c.2,-5.1,-3.4,-9.1,-3.8,-9.5c-1.3,-1.2,-3.3,-1.3,-4.6,-.1c-1.2,1.3,-1.3,3.3,0,4.6c.6,.6,2.1,2.7,2,4.8c0,1.3,-.7,2.5,-2.1,3.7c-1.9,1.8,-5.1,1.7,-7.5,-.1c-4,-3.1,-4.3,-9.3,-.6,-16.6c3.7,-7.8,12.5,-9.5,17.4,-9.8c12.2,-.9,28.9,4.8,37.4,17.3c12.3,18.3,9.4,43.7,-8.2,69.8c-1.2,1.7,-2.3,3.4,-3.4,5c-15.5,22.8,-26.7,39.2,-14.1,60c8.1,13.4,21.6,15.1,31.3,10.9c8.9,-3.9,14.1,-11.8,14.1,-20.5Z" class="g2_1" />
<path d="M583.6,535.6c-4.6,0,-8.3,-3.7,-8.3,-8.3c0,-4.6,3.7,-8.4,8.3,-8.4c4.6,0,8.4,3.8,8.4,8.4c0,4.6,-3.8,8.3,-8.4,8.3Z" class="g2_1" />
<path d="M571.4,550c0,0,8.5,8.3,4.8,16.9c0,0,8.7,1.1,8.3,-12l-5.1,-3.7Z" class="g2_1" />
<path d="M587.7,549.5c0,0,9.2,-.8,8.4,-13.1c0,0,7,1.6,4.5,9.9c-2.5,8.2,-11.1,4.8,-12.9,3.2Z" class="g2_1" />
<path d="M609.8,529.6c0,0,-.2,-12.5,-9.1,-19.4c-8.9,-7,-7.2,-14.3,-4.6,-15.7c0,0,-2.4,4.7,2.5,7.2c4.9,2.4,10,-4.8,7,-10.8c-2.9,-6,-12.9,-7.4,-17.7,.5c-4.8,7.8,-1.2,15.2,11,23.6l8.5,14.1c0,0,2.9,.3,2.4,.5Z" class="g2_1" />
<path d="M601,410.6c0,0,-1.5,-17.4,8.3,-19.7c0,0,-14,-5.8,-15.1,7.8c-1.1,13.6,6.8,11.9,6.8,11.9Z" class="g2_1" />
<path d="M608.9,324.4c0,0,7,12.1,1.8,25.5c0,0,-.8,3,1.4,3.7c0,0,-8.3,1.6,-6.6,-8.1l2,-14.6Z" class="g2_1" />
<path d="M543.3,407.7c0,0,-2.8,-4.8,1.9,-8.3c4.6,-3.5,10.6,-2.4,12.4,-.7c0,0,-4.8,1.8,-4.4,7.9c0,0,2.4,13.2,-8.6,17.5l-2.1,-4.8c0,0,5.6,-5,.8,-11.6Z" class="g2_1" />
<path d="M572.9,387.4c0,0,-12.8,-4,-13.6,-12.8c0,0,-5.1,6.7,.1,12.1c5.2,5.5,13.5,.7,13.5,.7Z" class="g2_1" />
<path d="M601,454c0,0,-1.5,17.5,8.3,19.7c0,0,-14,5.8,-15.1,-7.8C593.1,452.3,601,454,601,454Z" class="g2_1" />
<path d="M608.9,540.2c0,0,7,-12.1,1.8,-25.4c0,0,-.8,-3.1,1.4,-3.8c0,0,-8.3,-1.6,-6.6,8.2l2,14.5Z" class="g2_1" />
<path d="M543.3,457c0,0,-2.8,4.8,1.9,8.2c4.6,3.5,10.6,2.4,12.4,.7c0,0,-4.8,-1.8,-4.4,-7.9c0,0,2.4,-13.2,-8.6,-17.4l-2.1,4.8c0,0,5.6,4.9,.8,11.6Z" class="g2_1" />
<path d="M572.9,477.2c0,0,-12.8,4,-13.6,12.8c0,0,-5.1,-6.7,.1,-12.1c5.2,-5.5,13.5,-.7,13.5,-.7Z" class="g2_1" />
<path d="M524.2,436c-7.8,0,-14.2,-1.6,-14.2,-3.6c0,-2.1,6.4,-3.7,14.2,-3.7c7.8,0,14.1,1.6,14.1,3.7c0,2,-6.3,3.6,-14.1,3.6Z" class="g2_1" />
<path d="M635.3,432.4c13.6,-22.1,34.7,0,34.7,0c0,0,-21.1,22.1,-34.7,0Z" class="g2_1" />
<path d="M636.9,432.1c18.6,3.8,8.7,23.7,8.7,23.7c0,0,-20.4,-8.9,-8.7,-23.7Z" class="g2_1" />
<path d="M636.9,432.7c18.6,-3.8,8.7,-23.8,8.7,-23.8c0,0,-20.4,8.9,-8.7,23.8Z" class="g2_1" />
<path d="M635.3,440.9c-4.7,0,-8.5,-3.8,-8.5,-8.5c0,-4.7,3.8,-8.5,8.5,-8.5c4.8,0,8.6,3.8,8.6,8.5c0,4.7,-3.8,8.5,-8.6,8.5Z" class="g2_1" />
<path d="M612.2,533.2c0,-2,.3,-4,.8,-6c2.5,-8.8,8.8,-14.2,17,-14.2c7.6,-.1,14.6,4.6,16.6,11.1c.5,1.7,-.5,3.5,-2.2,4c-1.7,.5,-3.5,-.4,-4,-2.1c-1.1,-3.8,-5.6,-6.7,-10.3,-6.7c-5.2,.1,-9.2,3.6,-10.9,9.6c-2.5,9,3.3,16.1,9.7,18.8c6.6,2.9,16.7,2.5,23.3,-8.3c10.4,-17.2,1.3,-30.7,-13.9,-53.1c-1.2,-1.6,-2.3,-3.3,-3.4,-5C615.7,453,612.8,424.9,626.7,404.4c8.8,-13,26.5,-21.3,43.1,-20.2c10.8,.8,18.9,5.5,22.7,13.4c6,12.1,2.6,20.6,-2.5,24.5c-4.8,3.7,-11.4,3.6,-15.7,-.1c-3.3,-3,-4.1,-6.2,-4.2,-8.3c-.2,-5.2,3.5,-9.1,3.9,-9.6c1.2,-1.2,3.2,-1.2,4.5,0c1.2,1.2,1.3,3.2,.1,4.5c-.6,.6,-2.2,2.7,-2.1,4.9c.1,1.3,.7,2.5,2.1,3.7c2,1.7,5.1,1.6,7.5,-.2c4,-3,4.3,-9.3,.7,-16.6c-3.8,-7.7,-12.6,-9.5,-17.5,-9.8c-12.1,-.8,-28.9,4.8,-37.3,17.4c-12.4,18.2,-9.4,43.7,8.2,69.7c1.1,1.7,2.3,3.4,3.3,5c15.5,22.8,26.7,39.3,14.1,60c-8.1,13.4,-21.6,15.1,-31.3,10.9c-8.8,-3.8,-14.1,-11.8,-14.1,-20.4Z" class="g2_1" />
<path d="M638.8,535.7c4.6,0,8.4,-3.8,8.4,-8.4c0,-4.6,-3.8,-8.3,-8.4,-8.3c-4.6,0,-8.3,3.7,-8.3,8.3c0,4.6,3.7,8.4,8.3,8.4Z" class="g2_1" />
<path d="M651,550c0,0,-8.5,8.3,-4.8,17c0,0,-8.6,1,-8.2,-12l5,-3.8Z" class="g2_1" />
<path d="M634.8,549.5c0,0,-9.2,-.8,-8.4,-13.1c0,0,-7.1,1.7,-4.6,9.9c2.6,8.3,11.1,4.8,13,3.2Z" class="g2_1" />
<path d="M612.7,529.7c0,0,.1,-12.6,9,-19.5c8.9,-6.9,7.2,-14.2,4.7,-15.7c0,0,2.4,4.8,-2.6,7.2c-4.9,2.4,-10,-4.8,-7,-10.8c2.9,-6,12.9,-7.3,17.7,.5c4.8,7.9,1.2,15.2,-10.9,23.6l-8.5,14.1c0,0,-3,.3,-2.4,.6Z" class="g2_1" />
<path d="M612.2,331.6c0,2,.3,4,.8,6c2.5,8.8,8.8,14.1,17,14.2c7.6,.1,14.6,-4.6,16.6,-11.2c.5,-1.7,-.5,-3.4,-2.2,-4c-1.7,-.5,-3.5,.5,-4,2.2c-1.1,3.8,-5.6,6.7,-10.3,6.6c-5.2,0,-9.2,-3.5,-10.9,-9.5c-2.5,-9,3.3,-16.1,9.7,-18.9c6.6,-2.8,16.7,-2.4,23.3,8.4c10.4,17.2,1.3,30.7,-13.9,53.1c-1.2,1.6,-2.3,3.3,-3.4,5c-19.2,28.3,-22.1,56.3,-8.2,76.9c8.8,13,26.5,21.3,43.1,20.1c10.8,-.7,18.9,-5.4,22.7,-13.3c6,-12.1,2.6,-20.6,-2.5,-24.5c-4.8,-3.7,-11.4,-3.6,-15.7,.1c-3.3,3,-4.1,6.2,-4.2,8.3c-.2,5.2,3.5,9.1,3.9,9.5c1.2,1.3,3.2,1.3,4.5,.1c1.2,-1.2,1.3,-3.3,.1,-4.5c-.6,-.7,-2.2,-2.7,-2.1,-4.9c.1,-1.3,.7,-2.5,2.1,-3.7c2,-1.7,5.1,-1.7,7.5,.2c4,3,4.3,9.2,.7,16.6c-3.8,7.7,-12.6,9.4,-17.5,9.8C657.2,475,640.4,469.3,632,456.8c-12.4,-18.3,-9.4,-43.7,8.2,-69.7c1.1,-1.7,2.3,-3.4,3.3,-5.1c15.5,-22.7,26.7,-39.2,14.1,-59.9C649.5,308.7,636,307,626.3,311.2c-8.8,3.8,-14.1,11.7,-14.1,20.4Z" class="g2_1" />
<path d="M638.8,329.1c4.6,0,8.4,3.7,8.4,8.4c0,4.6,-3.8,8.3,-8.4,8.3c-4.6,0,-8.3,-3.7,-8.3,-8.3c0,-4.7,3.7,-8.4,8.3,-8.4Z" class="g2_1" />
<path d="M651,314.7c0,0,-8.5,-8.2,-4.8,-16.9c0,0,-8.6,-1.1,-8.2,12l5,3.7Z" class="g2_1" />
<path d="M634.8,315.3c0,0,-9.2,.8,-8.4,13c0,0,-7.1,-1.6,-4.6,-9.8c2.6,-8.3,11.1,-4.8,13,-3.2Z" class="g2_1" />
<path d="M612.7,335.1c0,0,.1,12.5,9,19.5c8.9,6.9,7.2,14.2,4.7,15.7c0,0,2.4,-4.8,-2.6,-7.2c-4.9,-2.4,-10,4.8,-7,10.8c2.9,6,12.9,7.3,17.7,-.6c4.8,-7.8,1.2,-15.1,-10.9,-23.5l-8.5,-14.2c0,0,-3,-.2,-2.4,-.5Z" class="g2_1" />
<path d="M621.5,454.1c0,0,1.4,17.5,-8.3,19.8c0,0,14,5.7,15,-7.9c1.1,-13.6,-6.7,-11.9,-6.7,-11.9Z" class="g2_1" />
<path d="M613.6,540.3c0,0,-7.1,-12.1,-1.9,-25.4c0,0,.8,-3.1,-1.3,-3.7c0,0,8.2,-1.6,6.5,8.1l-2,14.5Z" class="g2_1" />
<path d="M679.1,457.1c0,0,2.8,4.8,-1.9,8.2c-4.6,3.5,-10.6,2.4,-12.3,.7c0,0,4.8,-1.7,4.4,-7.9c0,0,-2.4,-13.1,8.5,-17.4l2.1,4.8c0,0,-5.6,4.9,-.8,11.6Z" class="g2_1" />
<path d="M649.6,477.3c0,0,12.7,4,13.5,12.8c0,0,5.1,-6.6,-.1,-12.1c-5.2,-5.5,-13.4,-.7,-13.4,-.7Z" class="g2_1" />
<path d="M621.5,410.7c0,0,1.4,-17.4,-8.3,-19.7c0,0,14,-5.7,15,7.9c1.1,13.5,-6.7,11.8,-6.7,11.8Z" class="g2_1" />
<path d="M613.6,324.5c0,0,-7.1,12.2,-1.9,25.5c0,0,.8,3,-1.3,3.7c0,0,8.2,1.6,6.5,-8.1l-2,-14.5Z" class="g2_1" />
<path d="M679.1,407.8c0,0,2.8,-4.8,-1.9,-8.3c-4.6,-3.4,-10.6,-2.4,-12.3,-.6c0,0,4.8,1.7,4.4,7.8c0,0,-2.4,13.2,8.5,17.5l2.1,-4.8c0,0,-5.6,-4.9,-.8,-11.6Z" class="g2_1" />
<path d="M649.6,387.5c0,0,12.7,-4,13.5,-12.7c0,0,5.1,6.6,-.1,12.1c-5.2,5.4,-13.4,.6,-13.4,.6Z" class="g2_1" />
<path d="M698.2,428.7c7.9,0,14.2,1.7,14.2,3.7c0,2,-6.3,3.7,-14.2,3.7c-7.8,0,-14.1,-1.7,-14.1,-3.7c0,-2,6.3,-3.7,14.1,-3.7Z" class="g2_1" />
<path d="M450.5,617.2c22.1,13.5,0,34.6,0,34.6c0,0,-22,-21.1,0,-34.6Z" class="g2_1" />
<path d="M450.8,618.7c-3.7,18.6,-23.7,8.7,-23.7,8.7c0,0,8.9,-20.4,23.7,-8.7Z" class="g2_1" />
<path d="M450.3,618.7c3.7,18.6,23.7,8.7,23.7,8.7c0,0,-8.9,-20.4,-23.7,-8.7Z" class="g2_1" />
<path d="M442,617.2c0,-4.8,3.8,-8.6,8.5,-8.6c4.8,0,8.6,3.8,8.6,8.6c0,4.7,-3.8,8.5,-8.6,8.5c-4.7,0,-8.5,-3.8,-8.5,-8.5Z" class="g2_1" />
<path d="M349.8,594c1.9,0,3.9,.3,5.9,.8c8.9,2.5,14.2,8.9,14.3,17c0,7.6,-4.6,14.6,-11.2,16.6c-1.7,.5,-3.5,-.5,-4,-2.2c-.5,-1.7,.5,-3.4,2.1,-4c3.9,-1.1,6.7,-5.6,6.7,-10.3C363.5,606.7,360,602.7,354,601c-9,-2.5,-16,3.3,-18.8,9.7c-2.9,6.6,-2.4,16.7,8.3,23.3c17.3,10.4,30.8,1.3,53.1,-13.9c1.7,-1.1,3.3,-2.3,5,-3.4c28.4,-19.2,56.4,-22.1,77,-8.2c13,8.8,21.3,26.5,20.1,43.1c-.7,10.8,-5.5,18.9,-13.3,22.7c-12.2,6,-20.7,2.6,-24.6,-2.5c-3.7,-4.8,-3.6,-11.4,.2,-15.6c2.9,-3.4,6.1,-4.2,8.2,-4.3c5.2,-.2,9.2,3.5,9.6,3.9c1.3,1.2,1.3,3.2,.1,4.5c-1.3,1.3,-3.3,1.3,-4.5,.1c-.7,-.6,-2.8,-2.2,-4.9,-2.1c-1.3,.1,-2.5,.8,-3.7,2.1c-1.8,2,-1.7,5.1,.1,7.5c3.1,4.1,9.3,4.3,16.7,.7c7.7,-3.8,9.4,-12.6,9.7,-17.5C493.2,639,487.5,622.2,475,613.8c-18.3,-12.4,-43.7,-9.4,-69.8,8.2c-1.7,1.1,-3.4,2.2,-5,3.4c-22.8,15.4,-39.2,26.6,-60,14c-13.3,-8.1,-15.1,-21.5,-10.9,-31.3c3.9,-8.8,11.8,-14.1,20.5,-14.1Z" class="g2_1" />
<path d="M347.3,620.6c0,4.6,3.7,8.4,8.3,8.4c4.6,0,8.4,-3.8,8.4,-8.4c0,-4.6,-3.8,-8.3,-8.4,-8.3c-4.6,0,-8.3,3.7,-8.3,8.3Z" class="g2_1" />
<path d="M332.9,632.8c0,0,-8.3,-8.5,-16.9,-4.8c0,0,-1.1,-8.6,12,-8.2l3.7,5Z" class="g2_1" />
<path d="M333.4,616.6c0,0,.8,-9.2,13.1,-8.4c0,0,-1.6,-7.1,-9.9,-4.5c-8.2,2.5,-4.8,11,-3.2,12.9Z" class="g2_1" />
<path d="M353.3,594.5c0,0,12.5,.1,19.4,9c6.9,8.9,14.3,7.2,15.8,4.7c0,0,-4.9,2.4,-7.3,-2.5c-2.3,-5,4.9,-10,10.8,-7.1c6,2.9,7.4,12.9,-.5,17.7c-7.9,4.8,-15.2,1.2,-23.6,-10.9l-14.1,-8.5c0,0,-.3,-3,-.5,-2.4Z" class="g2_1" />
<path d="M551.3,594c-1.9,0,-3.9,.3,-5.9,.8c-8.9,2.5,-14.2,8.9,-14.3,17c-.1,7.6,4.6,14.6,11.2,16.6c1.7,.5,3.5,-.5,4,-2.2c.5,-1.7,-.5,-3.4,-2.1,-4c-3.9,-1.1,-6.7,-5.6,-6.7,-10.3c.1,-5.2,3.5,-9.2,9.6,-10.9c8.9,-2.5,16,3.3,18.8,9.7c2.9,6.6,2.4,16.7,-8.3,23.3c-17.3,10.4,-30.8,1.3,-53.1,-13.9c-1.7,-1.1,-3.3,-2.3,-5.1,-3.4c-28.3,-19.2,-56.3,-22.1,-76.9,-8.2c-13,8.8,-21.3,26.5,-20.1,43.1c.7,10.8,5.5,18.9,13.3,22.7c12.2,6,20.7,2.6,24.6,-2.5c3.6,-4.8,3.6,-11.4,-.2,-15.6c-3,-3.4,-6.1,-4.2,-8.3,-4.3c-5.1,-.2,-9.1,3.5,-9.5,3.9c-1.2,1.2,-1.3,3.2,-.1,4.5c1.3,1.3,3.3,1.3,4.6,.1c.6,-.6,2.7,-2.2,4.8,-2.1c1.3,.1,2.5,.8,3.7,2.1c1.8,2,1.7,5.1,-.1,7.5c-3.1,4.1,-9.3,4.3,-16.7,.7c-7.7,-3.8,-9.4,-12.6,-9.7,-17.5c-.9,-12.1,4.8,-28.9,17.3,-37.3c18.3,-12.4,43.7,-9.4,69.8,8.2c1.7,1.1,3.4,2.2,5,3.4c22.8,15.4,39.2,26.6,60,14c13.3,-8.1,15.1,-21.5,10.9,-31.3C567.9,599.3,560,594,551.3,594Z" class="g2_1" />
<path d="M553.8,620.6c0,4.6,-3.7,8.4,-8.3,8.4c-4.6,0,-8.4,-3.8,-8.4,-8.4c0,-4.6,3.8,-8.3,8.4,-8.3c4.6,0,8.3,3.7,8.3,8.3Z" class="g2_1" />
<path d="M568.2,632.8c0,0,8.3,-8.5,16.9,-4.8c0,0,1.1,-8.6,-12,-8.2l-3.7,5Z" class="g2_1" />
<path d="M567.7,616.6c0,0,-.8,-9.2,-13.1,-8.4c0,0,1.6,-7.1,9.9,-4.5c8.2,2.5,4.8,11,3.2,12.9Z" class="g2_1" />
<path d="M547.8,594.5c0,0,-12.5,.1,-19.4,9c-7,8.9,-14.3,7.2,-15.8,4.7c0,0,4.9,2.4,7.2,-2.5c2.5,-5,-4.7,-10,-10.7,-7.1c-6,2.9,-7.4,12.9,.5,17.7c7.9,4.8,15.2,1.2,23.6,-10.9l14.1,-8.5c0,0,.3,-3,.5,-2.4Z" class="g2_1" />
<path d="M428.8,603.3c0,0,-17.5,1.4,-19.7,-8.3c0,0,-5.8,14,7.8,15c13.6,1.1,11.9,-6.7,11.9,-6.7Z" class="g2_1" />
<path d="M342.6,595.4c0,0,12.1,-7.1,25.4,-1.9c0,0,3.1,.8,3.8,-1.3c0,0,1.6,8.3,-8.1,6.5l-14.6,-2Z" class="g2_1" />
<path d="M425.9,660.9c0,0,-4.8,2.8,-8.3,-1.8c-3.5,-4.7,-2.4,-10.7,-.7,-12.4c0,0,1.8,4.8,7.9,4.4c0,0,13.2,-2.4,17.5,8.5l-4.9,2.1c0,0,-4.9,-5.6,-11.5,-.8Z" class="g2_1" />
<path d="M405.6,631.4c0,0,-4,12.8,-12.8,13.5c0,0,6.7,5.1,12.1,-.1c5.5,-5.2,.7,-13.4,.7,-13.4Z" class="g2_1" />
<path d="M472.2,603.3c0,0,17.5,1.4,19.7,-8.3c0,0,5.8,14,-7.8,15c-13.6,1.1,-11.9,-6.7,-11.9,-6.7Z" class="g2_1" />
<path d="M558.4,595.4c0,0,-12.1,-7.1,-25.4,-1.9c0,0,-3.1,.8,-3.8,-1.3c0,0,-1.6,8.3,8.2,6.5l14.5,-2Z" class="g2_1" />
<path d="M475.1,660.9c0,0,4.8,2.8,8.3,-1.8c3.5,-4.7,2.4,-10.7,.7,-12.4c0,0,-1.8,4.8,-7.9,4.4c0,0,-13.2,-2.4,-17.4,8.5l4.8,2.1c0,0,4.9,-5.6,11.5,-.8Z" class="g2_1" />
<path d="M495.4,631.4c0,0,4,12.8,12.8,13.5c0,0,-6.7,5.1,-12.1,-.1c-5.5,-5.2,-.7,-13.4,-.7,-13.4Z" class="g2_1" />
<path d="M454.2,680.1c0,7.8,-1.6,14.1,-3.7,14.1c-2,0,-3.6,-6.3,-3.6,-14.1c0,-7.9,1.6,-14.2,3.6,-14.2c2.1,0,3.7,6.3,3.7,14.2Z" class="g2_1" />
<path d="M450.6,568.9c-22.1,-13.6,0,-34.6,0,-34.6c0,0,22,21,0,34.6Z" class="g2_1" />
<path d="M450.3,567.3C454,548.8,474,558.6,474,558.6c0,0,-8.9,20.4,-23.7,8.7Z" class="g2_1" />
<path d="M450.9,567.3c-3.8,-18.5,-23.8,-8.7,-23.8,-8.7c0,0,8.9,20.4,23.8,8.7Z" class="g2_1" />
<path d="M459.1,568.9c0,4.7,-3.8,8.5,-8.5,8.5c-4.7,0,-8.6,-3.8,-8.6,-8.5c0,-4.7,3.9,-8.5,8.6,-8.5c4.7,0,8.5,3.8,8.5,8.5Z" class="g2_1" />
<path d="M551.3,592c-1.9,0,-3.9,-.2,-5.9,-.8c-8.8,-2.5,-14.2,-8.8,-14.2,-17c-.1,-7.6,4.6,-14.5,11.1,-16.5c1.7,-.5,3.5,.4,4,2.1c.5,1.7,-.4,3.5,-2.1,4c-3.9,1.2,-6.7,5.6,-6.7,10.3c.1,5.3,3.6,9.3,9.6,10.9c9,2.5,16,-3.2,18.8,-9.6c2.9,-6.7,2.5,-16.8,-8.3,-23.3C540.3,541.6,526.9,550.8,504.5,566c-1.6,1.1,-3.3,2.2,-5,3.4c-28.3,19.1,-56.4,22.1,-76.9,8.2C409.5,568.8,401.3,551,402.4,534.5c.8,-10.9,5.5,-18.9,13.4,-22.8c12.1,-5.9,20.6,-2.6,24.5,2.5c3.7,4.9,3.6,11.5,-.2,15.7c-2.9,3.4,-6.1,4.1,-8.2,4.2c-5.2,.2,-9.1,-3.4,-9.6,-3.8c-1.2,-1.3,-1.2,-3.3,0,-4.6c1.2,-1.2,3.2,-1.2,4.5,0c.6,.6,2.7,2.1,4.9,2c1.3,0,2.5,-.7,3.7,-2c1.7,-2,1.6,-5.2,-.2,-7.6c-3,-4,-9.3,-4.3,-16.6,-.6c-7.7,3.7,-9.5,12.5,-9.8,17.4c-.8,12.2,4.8,28.9,17.4,37.4c18.2,12.3,43.7,9.4,69.7,-8.2c1.7,-1.2,3.4,-2.3,5,-3.4c22.8,-15.5,39.2,-26.7,60,-14.1c13.4,8.2,15.1,21.6,10.9,31.3C568,586.8,560,592,551.3,592Z" class="g2_1" />
<path d="M553.8,565.4c0,-4.6,-3.7,-8.3,-8.3,-8.3c-4.6,0,-8.3,3.7,-8.3,8.3c0,4.6,3.7,8.4,8.3,8.4c4.6,0,8.3,-3.8,8.3,-8.4Z" class="g2_1" />
<path d="M568.2,553.2c0,0,8.3,8.6,17,4.8c0,0,1,8.7,-12,8.3l-3.8,-5.1Z" class="g2_1" />
<path d="M567.7,569.5c0,0,-.8,9.2,-13.1,8.4c0,0,1.6,7,9.9,4.5c8.3,-2.5,4.8,-11.1,3.2,-12.9Z" class="g2_1" />
<path d="M547.8,591.6c0,0,-12.5,-.2,-19.4,-9.1c-6.9,-8.9,-14.2,-7.2,-15.7,-4.6c0,0,4.8,-2.4,7.2,2.5c2.4,4.9,-4.8,10,-10.8,7.1c-6,-3,-7.3,-13,.5,-17.8c7.9,-4.8,15.2,-1.2,23.6,11l14.1,8.5c0,0,.3,2.9,.5,2.4Z" class="g2_1" />
<path d="M349.8,592c2,0,4,-.2,6,-.8c8.8,-2.5,14.1,-8.8,14.2,-17c.1,-7.6,-4.6,-14.5,-11.2,-16.5c-1.7,-.5,-3.5,.4,-4,2.1c-.5,1.7,.5,3.5,2.2,4c3.8,1.2,6.7,5.6,6.6,10.3c0,5.3,-3.5,9.3,-9.6,10.9c-8.9,2.5,-16,-3.2,-18.8,-9.6c-2.9,-6.7,-2.4,-16.8,8.4,-23.3c17.2,-10.5,30.7,-1.3,53,13.9c1.7,1.1,3.3,2.2,5.1,3.4c28.3,19.1,56.3,22.1,76.9,8.2c13,-8.8,21.3,-26.6,20.1,-43.1c-.7,-10.9,-5.5,-18.9,-13.3,-22.8c-12.2,-5.9,-20.6,-2.6,-24.5,2.5c-3.7,4.9,-3.7,11.5,.1,15.7c3,3.4,6.1,4.1,8.3,4.2c5.2,.2,9.1,-3.4,9.5,-3.8c1.3,-1.3,1.3,-3.3,.1,-4.6c-1.2,-1.2,-3.3,-1.2,-4.5,0c-.7,.6,-2.7,2.1,-4.9,2c-1.3,0,-2.5,-.7,-3.7,-2c-1.7,-2,-1.7,-5.2,.1,-7.6c3.1,-4,9.3,-4.3,16.7,-.6c7.7,3.7,9.4,12.5,9.8,17.4c.8,12.2,-4.9,28.9,-17.4,37.4c-18.3,12.3,-43.7,9.4,-69.7,-8.2c-1.8,-1.2,-3.4,-2.3,-5.1,-3.4C377.5,545.2,361,534,340.3,546.6c-13.4,8.2,-15.2,21.6,-10.9,31.3c3.8,8.9,11.7,14.1,20.4,14.1Z" class="g2_1" />
<path d="M347.3,565.4c0,-4.6,3.7,-8.3,8.3,-8.3c4.7,0,8.4,3.7,8.4,8.3c0,4.6,-3.7,8.4,-8.4,8.4c-4.6,0,-8.3,-3.8,-8.3,-8.4Z" class="g2_1" />
<path d="M332.9,553.2c0,0,-8.2,8.6,-16.9,4.8c0,0,-1.1,8.7,12,8.3l3.7,-5.1Z" class="g2_1" />
<path d="M333.5,569.5c0,0,.7,9.2,13,8.4c0,0,-1.6,7,-9.8,4.5c-8.3,-2.5,-4.8,-11.1,-3.2,-12.9Z" class="g2_1" />
<path d="M353.3,591.6c0,0,12.5,-.2,19.5,-9.1c6.9,-8.9,14.2,-7.2,15.7,-4.6c0,0,-4.8,-2.4,-7.2,2.5c-2.4,4.9,4.8,10,10.8,7.1c6,-3,7.3,-13,-.6,-17.8c-7.8,-4.8,-15.2,-1.2,-23.5,11l-14.2,8.5c0,0,-.2,2.9,-.5,2.4Z" class="g2_1" />
<path d="M472.3,582.8c0,0,17.5,-1.5,19.8,8.3c0,0,5.7,-14,-7.9,-15.1c-13.6,-1.1,-11.9,6.8,-11.9,6.8Z" class="g2_1" />
<path d="M558.5,590.7c0,0,-12.1,7,-25.4,1.8c0,0,-3.1,-.8,-3.8,1.4c0,0,-1.5,-8.3,8.2,-6.6l14.5,2Z" class="g2_1" />
<path d="M475.3,525.1c0,0,4.8,-2.8,8.2,1.9c3.5,4.6,2.4,10.6,.7,12.4c0,0,-1.7,-4.8,-7.9,-4.4c0,0,-13.2,2.4,-17.4,-8.6l4.8,-2.1c0,0,4.9,5.6,11.6,.8Z" class="g2_1" />
<path d="M495.5,554.7c0,0,4,-12.8,12.8,-13.6c0,0,-6.7,-5.1,-12.1,.1c-5.5,5.2,-.7,13.5,-.7,13.5Z" class="g2_1" />
<path d="M428.9,582.8c0,0,-17.4,-1.5,-19.7,8.3c0,0,-5.7,-14,7.9,-15.1c13.5,-1.1,11.8,6.8,11.8,6.8Z" class="g2_1" />
<path d="M342.7,590.7c0,0,12.1,7,25.5,1.8c0,0,3,-.8,3.7,1.4c0,0,1.6,-8.3,-8.1,-6.6l-14.6,2Z" class="g2_1" />
<path d="M426,525.1c0,0,-4.8,-2.8,-8.3,1.9c-3.4,4.6,-2.4,10.6,-.6,12.4c0,0,1.7,-4.8,7.8,-4.4c0,0,13.2,2.4,17.5,-8.6l-4.8,-2.1c0,0,-5,5.6,-11.6,.8Z" class="g2_1" />
<path d="M405.7,554.7c0,0,-4,-12.8,-12.8,-13.6c0,0,6.7,-5.1,12.2,.1c5.4,5.2,.6,13.5,.6,13.5Z" class="g2_1" />
<path d="M446.9,506c0,-7.8,1.7,-14.2,3.7,-14.2c2,0,3.7,6.4,3.7,14.2c0,7.8,-1.7,14.2,-3.7,14.2c-2,0,-3.7,-6.4,-3.7,-14.2Z" class="g2_1" />
<path d="M450.5,295.8c22.1,13.6,0,34.7,0,34.7c0,0,-22,-21.1,0,-34.7Z" class="g2_1" />
<path d="M450.8,297.4c-3.7,18.6,-23.7,8.7,-23.7,8.7c0,0,8.9,-20.4,23.7,-8.7Z" class="g2_1" />
<path d="M450.3,297.4c3.7,18.6,23.7,8.7,23.7,8.7c0,0,-8.9,-20.4,-23.7,-8.7Z" class="g2_1" />
<path d="M442,295.8c0,-4.7,3.8,-8.5,8.5,-8.5c4.8,0,8.6,3.8,8.6,8.5c0,4.8,-3.8,8.6,-8.6,8.6c-4.7,0,-8.5,-3.8,-8.5,-8.6Z" class="g2_1" />
<path d="M349.8,272.7c1.9,0,3.9,.3,5.9,.8c8.9,2.5,14.2,8.8,14.3,17c0,7.6,-4.6,14.6,-11.2,16.5c-1.7,.6,-3.5,-.4,-4,-2.1c-.5,-1.7,.5,-3.5,2.1,-4c3.9,-1.1,6.7,-5.6,6.7,-10.3c-.1,-5.2,-3.6,-9.2,-9.6,-10.9c-9,-2.5,-16,3.3,-18.8,9.7c-2.9,6.6,-2.4,16.7,8.3,23.3c17.3,10.4,30.8,1.3,53.1,-13.9c1.7,-1.2,3.3,-2.3,5,-3.4c28.4,-19.2,56.4,-22.2,77,-8.2c13,8.8,21.3,26.5,20.1,43.1c-.7,10.8,-5.5,18.9,-13.3,22.7c-12.2,6,-20.7,2.6,-24.6,-2.5c-3.7,-4.8,-3.6,-11.4,.2,-15.7c2.9,-3.3,6.1,-4.1,8.2,-4.2c5.2,-.2,9.2,3.4,9.6,3.9c1.3,1.2,1.3,3.2,.1,4.5c-1.3,1.3,-3.3,1.3,-4.5,.1c-.7,-.6,-2.8,-2.2,-4.9,-2.1c-1.3,.1,-2.5,.7,-3.7,2.1c-1.8,2,-1.7,5.1,.1,7.5c3.1,4,9.3,4.3,16.7,.7c7.7,-3.8,9.4,-12.6,9.7,-17.5c.9,-12.1,-4.8,-28.9,-17.3,-37.4c-18.3,-12.3,-43.7,-9.3,-69.8,8.3c-1.7,1.1,-3.4,2.2,-5,3.3c-22.8,15.5,-39.2,26.7,-60,14.1C326.9,310,325.1,296.6,329.3,286.8c3.9,-8.8,11.8,-14.1,20.5,-14.1Z" class="g2_1" />
<path d="M347.3,299.3c0,4.6,3.7,8.4,8.3,8.4c4.6,0,8.4,-3.8,8.4,-8.4c0,-4.6,-3.8,-8.3,-8.4,-8.3c-4.6,0,-8.3,3.7,-8.3,8.3Z" class="g2_1" />
<path d="M332.9,311.5c0,0,-8.3,-8.5,-16.9,-4.8c0,0,-1.1,-8.6,12,-8.2l3.7,5Z" class="g2_1" />
<path d="M333.4,295.3c0,0,.8,-9.2,13.1,-8.4c0,0,-1.6,-7.1,-9.9,-4.6c-8.2,2.6,-4.8,11.1,-3.2,13Z" class="g2_1" />
<path d="M353.3,273.2c0,0,12.5,.1,19.4,9c6.9,8.9,14.3,7.2,15.8,4.7c0,0,-4.9,2.4,-7.3,-2.6c-2.3,-4.9,4.9,-9.9,10.8,-7c6,2.9,7.4,12.9,-.5,17.7c-7.9,4.8,-15.2,1.2,-23.6,-10.9l-14.1,-8.6c0,0,-.3,-2.9,-.5,-2.3Z" class="g2_1" />
<path d="M551.3,272.7c-1.9,0,-3.9,.3,-5.9,.8c-8.9,2.5,-14.2,8.8,-14.3,17c-.1,7.6,4.6,14.6,11.2,16.5c1.7,.6,3.5,-.4,4,-2.1c.5,-1.7,-.5,-3.5,-2.1,-4c-3.9,-1.1,-6.7,-5.6,-6.7,-10.3c.1,-5.2,3.5,-9.2,9.6,-10.9c8.9,-2.5,16,3.3,18.8,9.7c2.9,6.6,2.4,16.7,-8.3,23.3c-17.3,10.4,-30.8,1.3,-53.1,-13.9c-1.7,-1.2,-3.3,-2.3,-5.1,-3.4c-28.3,-19.2,-56.3,-22.2,-76.9,-8.2c-13,8.8,-21.3,26.5,-20.1,43.1c.7,10.8,5.5,18.9,13.3,22.7c12.2,6,20.7,2.6,24.6,-2.5c3.6,-4.8,3.6,-11.4,-.2,-15.7c-3,-3.3,-6.1,-4.1,-8.3,-4.2c-5.1,-.2,-9.1,3.4,-9.5,3.9c-1.2,1.2,-1.3,3.2,-.1,4.5c1.3,1.3,3.3,1.3,4.6,.1c.6,-.6,2.7,-2.2,4.8,-2.1c1.3,.1,2.5,.7,3.7,2.1c1.8,2,1.7,5.1,-.1,7.5c-3.1,4,-9.3,4.3,-16.7,.7c-7.7,-3.8,-9.4,-12.6,-9.7,-17.5c-.9,-12.1,4.8,-28.9,17.3,-37.4c18.3,-12.3,43.7,-9.3,69.8,8.3c1.7,1.1,3.4,2.2,5,3.3c22.8,15.5,39.2,26.7,60,14.1C574.2,310,576,296.6,571.8,286.8C567.9,278,560,272.7,551.3,272.7Z" class="g2_1" />
<path d="M553.8,299.3c0,4.6,-3.7,8.4,-8.3,8.4c-4.6,0,-8.4,-3.8,-8.4,-8.4c0,-4.6,3.8,-8.3,8.4,-8.3c4.6,0,8.3,3.7,8.3,8.3Z" class="g2_1" />
<path d="M568.2,311.5c0,0,8.3,-8.5,16.9,-4.8c0,0,1.1,-8.6,-12,-8.2l-3.7,5Z" class="g2_1" />
<path d="M567.7,295.3c0,0,-.8,-9.2,-13.1,-8.4c0,0,1.6,-7.1,9.9,-4.6c8.2,2.6,4.8,11.1,3.2,13Z" class="g2_1" />
<path d="M547.8,273.2c0,0,-12.5,.1,-19.4,9c-7,8.9,-14.3,7.2,-15.8,4.7c0,0,4.9,2.4,7.2,-2.6c2.5,-4.9,-4.7,-9.9,-10.7,-7c-6,2.9,-7.4,12.9,.5,17.7c7.9,4.8,15.2,1.2,23.6,-10.9l14.1,-8.6c0,0,.3,-2.9,.5,-2.3Z" class="g2_1" />
<path d="M428.8,282c0,0,-17.5,1.4,-19.7,-8.3c0,0,-5.8,14,7.8,15c13.6,1.1,11.9,-6.7,11.9,-6.7Z" class="g2_1" />
<path d="M342.6,274.1c0,0,12.1,-7.1,25.4,-1.9c0,0,3.1,.8,3.8,-1.3c0,0,1.6,8.2,-8.1,6.5l-14.6,-2Z" class="g2_1" />
<path d="M425.9,339.6c0,0,-4.8,2.8,-8.3,-1.8c-3.5,-4.7,-2.4,-10.7,-.7,-12.4c0,0,1.8,4.8,7.9,4.4c0,0,13.2,-2.4,17.5,8.5l-4.9,2.1c0,0,-4.9,-5.6,-11.5,-.8Z" class="g2_1" />
<path d="M405.6,310.1c0,0,-4,12.7,-12.8,13.5c0,0,6.7,5.1,12.1,-.1c5.5,-5.2,.7,-13.4,.7,-13.4Z" class="g2_1" />
<path d="M472.2,282c0,0,17.5,1.4,19.7,-8.3c0,0,5.8,14,-7.8,15C470.5,289.8,472.2,282,472.2,282Z" class="g2_1" />
<path d="M558.4,274.1c0,0,-12.1,-7.1,-25.4,-1.9c0,0,-3.1,.8,-3.8,-1.3c0,0,-1.6,8.2,8.2,6.5l14.5,-2Z" class="g2_1" />
<path d="M475.1,339.6c0,0,4.8,2.8,8.3,-1.8c3.5,-4.7,2.4,-10.7,.7,-12.4c0,0,-1.8,4.8,-7.9,4.4c0,0,-13.2,-2.4,-17.4,8.5l4.8,2.1c0,0,4.9,-5.6,11.5,-.8Z" class="g2_1" />
<path d="M495.4,310.1c0,0,4,12.7,12.8,13.5c0,0,-6.7,5.1,-12.1,-.1c-5.5,-5.2,-.7,-13.4,-.7,-13.4Z" class="g2_1" />
<path d="M454.2,358.8c0,7.8,-1.6,14.1,-3.7,14.1c-2,0,-3.6,-6.3,-3.6,-14.1c0,-7.9,1.6,-14.2,3.6,-14.2c2.1,0,3.7,6.3,3.7,14.2Z" class="g2_1" />
<path d="M450.6,247.6c-22.1,-13.6,0,-34.6,0,-34.6c0,0,22,21,0,34.6Z" class="g2_1" />
<path d="M450.3,246C454,227.5,474,237.3,474,237.3c0,0,-8.9,20.4,-23.7,8.7Z" class="g2_1" />
<path d="M450.9,246c-3.8,-18.5,-23.8,-8.7,-23.8,-8.7c0,0,8.9,20.4,23.8,8.7Z" class="g2_1" />
<path d="M459.1,247.6c0,4.7,-3.8,8.5,-8.5,8.5c-4.7,0,-8.6,-3.8,-8.6,-8.5c0,-4.7,3.9,-8.5,8.6,-8.5c4.7,0,8.5,3.8,8.5,8.5Z" class="g2_1" />
<path d="M551.3,270.7c-1.9,0,-3.9,-.3,-5.9,-.8c-8.8,-2.5,-14.2,-8.8,-14.2,-17c-.1,-7.6,4.6,-14.5,11.1,-16.5c1.7,-.5,3.5,.4,4,2.1c.5,1.7,-.4,3.5,-2.1,4c-3.9,1.2,-6.7,5.6,-6.7,10.3c.1,5.3,3.6,9.3,9.6,10.9c9,2.5,16,-3.2,18.8,-9.6c2.9,-6.7,2.5,-16.8,-8.3,-23.3c-17.3,-10.5,-30.7,-1.3,-53.1,13.9c-1.6,1.1,-3.3,2.2,-5,3.4c-28.3,19.1,-56.4,22.1,-76.9,8.2c-13.1,-8.8,-21.3,-26.6,-20.2,-43.1c.8,-10.9,5.5,-19,13.4,-22.8c12.1,-5.9,20.6,-2.6,24.5,2.5c3.7,4.9,3.6,11.4,-.2,15.7c-2.9,3.3,-6.1,4.1,-8.2,4.2c-5.2,.2,-9.1,-3.4,-9.6,-3.8c-1.2,-1.3,-1.2,-3.3,0,-4.6c1.2,-1.2,3.2,-1.3,4.5,0c.6,.6,2.7,2.1,4.9,2c1.3,0,2.5,-.7,3.7,-2.1c1.7,-1.9,1.6,-5.1,-.2,-7.5c-3,-4,-9.3,-4.3,-16.6,-.7c-7.7,3.8,-9.5,12.6,-9.8,17.5c-.8,12.2,4.8,28.9,17.4,37.4c18.2,12.3,43.7,9.3,69.7,-8.2c1.7,-1.2,3.4,-2.3,5,-3.4c22.8,-15.5,39.2,-26.7,60,-14.1c13.4,8.1,15.1,21.6,10.9,31.3c-3.8,8.8,-11.8,14.1,-20.5,14.1Z" class="g2_1" />
<path d="M553.8,244.1c0,-4.6,-3.7,-8.3,-8.3,-8.3c-4.6,0,-8.3,3.7,-8.3,8.3c0,4.6,3.7,8.4,8.3,8.4c4.6,0,8.3,-3.8,8.3,-8.4Z" class="g2_1" />
<path d="M568.2,231.9c0,0,8.3,8.5,17,4.8c0,0,1,8.7,-12,8.3l-3.8,-5.1Z" class="g2_1" />
<path d="M567.7,248.2c0,0,-.8,9.2,-13.1,8.4c0,0,1.6,7,9.9,4.5c8.3,-2.5,4.8,-11.1,3.2,-12.9Z" class="g2_1" />
<path d="M547.8,270.3c0,0,-12.5,-.2,-19.4,-9.1c-6.9,-8.9,-14.2,-7.2,-15.7,-4.6c0,0,4.8,-2.4,7.2,2.5c2.4,4.9,-4.8,10,-10.8,7.1c-6,-3,-7.3,-13,.5,-17.8c7.9,-4.8,15.2,-1.2,23.6,11l14.1,8.5c0,0,.3,2.9,.5,2.4Z" class="g2_1" />
<path d="M349.8,270.7c2,0,4,-.3,6,-.8c8.8,-2.5,14.1,-8.8,14.2,-17c.1,-7.6,-4.6,-14.5,-11.2,-16.5c-1.7,-.5,-3.5,.4,-4,2.1c-.5,1.7,.5,3.5,2.2,4c3.8,1.2,6.7,5.6,6.6,10.3c0,5.3,-3.5,9.3,-9.6,10.9c-8.9,2.5,-16,-3.2,-18.8,-9.6c-2.9,-6.7,-2.4,-16.8,8.4,-23.3c17.2,-10.5,30.7,-1.3,53,13.9c1.7,1.1,3.3,2.2,5.1,3.4c28.3,19.1,56.3,22.1,76.9,8.2c13,-8.8,21.3,-26.6,20.1,-43.1c-.7,-10.9,-5.5,-19,-13.3,-22.8c-12.2,-5.9,-20.6,-2.6,-24.5,2.5c-3.7,4.9,-3.7,11.4,.1,15.7c3,3.3,6.1,4.1,8.3,4.2c5.2,.2,9.1,-3.4,9.5,-3.8c1.3,-1.3,1.3,-3.3,.1,-4.6c-1.2,-1.2,-3.3,-1.3,-4.5,0c-.7,.6,-2.7,2.1,-4.9,2c-1.3,0,-2.5,-.7,-3.7,-2.1c-1.7,-1.9,-1.7,-5.1,.1,-7.5c3.1,-4,9.3,-4.3,16.7,-.7c7.7,3.8,9.4,12.6,9.8,17.5c.8,12.2,-4.9,28.9,-17.4,37.4c-18.3,12.3,-43.7,9.3,-69.7,-8.2c-1.8,-1.2,-3.4,-2.3,-5.1,-3.4C377.5,223.9,361,212.7,340.3,225.3c-13.4,8.1,-15.2,21.6,-10.9,31.3c3.8,8.8,11.7,14.1,20.4,14.1Z" class="g2_1" />
<path d="M347.3,244.1c0,-4.6,3.7,-8.3,8.3,-8.3c4.7,0,8.4,3.7,8.4,8.3c0,4.6,-3.7,8.4,-8.4,8.4c-4.6,0,-8.3,-3.8,-8.3,-8.4Z" class="g2_1" />
<path d="M332.9,231.9c0,0,-8.2,8.5,-16.9,4.8c0,0,-1.1,8.7,12,8.3l3.7,-5.1Z" class="g2_1" />
<path d="M333.5,248.2c0,0,.7,9.2,13,8.4c0,0,-1.6,7,-9.8,4.5c-8.3,-2.5,-4.8,-11.1,-3.2,-12.9Z" class="g2_1" />
<path d="M353.3,270.3c0,0,12.5,-.2,19.5,-9.1c6.9,-8.9,14.2,-7.2,15.7,-4.6c0,0,-4.8,-2.4,-7.2,2.5c-2.4,4.9,4.8,10,10.8,7.1c6,-3,7.3,-13,-.6,-17.8c-7.8,-4.8,-15.2,-1.2,-23.5,11l-14.2,8.5c0,0,-.2,2.9,-.5,2.4Z" class="g2_1" />
<path d="M472.3,261.5c0,0,17.5,-1.5,19.8,8.2c0,0,5.7,-13.9,-7.9,-15c-13.6,-1.1,-11.9,6.8,-11.9,6.8Z" class="g2_1" />
<path d="M558.5,269.3c0,0,-12.1,7.1,-25.4,1.9c0,0,-3.1,-.8,-3.8,1.3c0,0,-1.5,-8.2,8.2,-6.5l14.5,2Z" class="g2_1" />
<path d="M475.3,203.8c0,0,4.8,-2.8,8.2,1.9c3.5,4.6,2.4,10.6,.7,12.4c0,0,-1.7,-4.8,-7.9,-4.4c0,0,-13.2,2.4,-17.4,-8.6l4.8,-2.1c0,0,4.9,5.6,11.6,.8Z" class="g2_1" />
<path d="M495.5,233.4c0,0,4,-12.8,12.8,-13.6c0,0,-6.7,-5.1,-12.1,.1c-5.5,5.2,-.7,13.5,-.7,13.5Z" class="g2_1" />
<path d="M428.9,261.5c0,0,-17.4,-1.5,-19.7,8.2c0,0,-5.7,-13.9,7.9,-15c13.5,-1.1,11.8,6.8,11.8,6.8Z" class="g2_1" />
<path d="M342.7,269.3c0,0,12.1,7.1,25.5,1.9c0,0,3,-.8,3.7,1.3c0,0,1.6,-8.2,-8.1,-6.5l-14.6,2Z" class="g2_1" />
<path d="M426,203.8c0,0,-4.8,-2.8,-8.3,1.9c-3.4,4.6,-2.4,10.6,-.6,12.4c0,0,1.7,-4.8,7.8,-4.4c0,0,13.2,2.4,17.5,-8.6L437.6,203c0,0,-5,5.6,-11.6,.8Z" class="g2_1" />
<path d="M405.7,233.4c0,0,-4,-12.8,-12.8,-13.6c0,0,6.7,-5.1,12.2,.1c5.4,5.2,.6,13.5,.6,13.5Z" class="g2_1" />
<path d="M446.9,184.7c0,-7.8,1.7,-14.2,3.7,-14.2c2,0,3.7,6.4,3.7,14.2c0,7.8,-1.7,14.1,-3.7,14.1c-2,0,-3.7,-6.3,-3.7,-14.1Z" class="g2_1" />
<path d="M605.4,432.4c0,-85.6,-69.3,-154.9,-154.8,-154.9c-85.6,0,-154.9,69.3,-154.9,154.9c0,85.5,69.3,154.8,154.9,154.8c85.5,0,154.8,-69.3,154.8,-154.8Z" class="g2_1" />
<path d="M579.4,432.4c0,-71.2,-57.7,-128.9,-128.8,-128.9c-71.2,0,-128.9,57.7,-128.9,128.9c0,71.1,57.7,128.8,128.9,128.8c71.1,0,128.8,-57.7,128.8,-128.8Z" class="g3_1" />
<path d="M465.4,306c0,-8.2,-6.7,-14.8,-14.8,-14.8c-8.2,0,-14.8,6.6,-14.8,14.8c0,8.2,6.6,14.8,14.8,14.8c8.1,0,14.8,-6.6,14.8,-14.8Z" class="g3_1" />
<path d="M465.4,557c0,-8.1,-6.7,-14.8,-14.8,-14.8c-8.2,0,-14.8,6.7,-14.8,14.8c0,8.2,6.6,14.9,14.8,14.9c8.1,0,14.8,-6.7,14.8,-14.9Z" class="g3_1" />
<path d="M576.1,446.3c8.2,0,14.8,-6.6,14.8,-14.8c0,-8.2,-6.6,-14.8,-14.8,-14.8c-8.2,0,-14.8,6.6,-14.8,14.8c0,8.2,6.6,14.8,14.8,14.8Z" class="g3_1" />
<path d="M325,446.3c8.2,0,14.8,-6.6,14.8,-14.8c0,-8.2,-6.6,-14.8,-14.8,-14.8c-8.1,0,-14.8,6.6,-14.8,14.8c0,8.2,6.7,14.8,14.8,14.8Z" class="g3_1" />
<path d="M372.3,332.3c-5.8,-5.8,-15.2,-5.8,-21,0c-5.7,5.8,-5.7,15.1,0,20.9c5.8,5.8,15.2,5.8,21,0c5.7,-5.8,5.7,-15.1,0,-20.9Z" class="g3_1" />
<path d="M549.8,509.8c-5.8,-5.8,-15.2,-5.8,-20.9,0c-5.8,5.8,-5.8,15.2,0,20.9c5.7,5.8,15.1,5.8,20.9,0c5.8,-5.7,5.8,-15.1,0,-20.9Z" class="g3_1" />
<path d="M549.8,353.2c5.8,-5.8,5.8,-15.1,0,-20.9c-5.8,-5.8,-15.2,-5.8,-20.9,0c-5.8,5.8,-5.8,15.1,0,20.9c5.7,5.8,15.1,5.8,20.9,0Z" class="g3_1" />
<path d="M372.3,530.7c5.7,-5.7,5.7,-15.1,0,-20.9c-5.8,-5.8,-15.2,-5.8,-21,0c-5.7,5.8,-5.7,15.2,0,20.9c5.8,5.8,15.2,5.8,21,0Z" class="g3_1" />
<path d="M511.5,320.7c3,-7.5,-.6,-16.2,-8.2,-19.2c-7.6,-3.1,-16.2,.6,-19.3,8.1c-3.1,7.6,.6,16.2,8.2,19.3c7.5,3.1,16.2,-.6,19.3,-8.2Z" class="g3_1" />
<path d="M417.1,553.4c3.1,-7.6,-.6,-16.2,-8.2,-19.3c-7.5,-3,-16.2,.6,-19.2,8.2c-3.1,7.6,.6,16.2,8.1,19.3c7.6,3,16.2,-.6,19.3,-8.2Z" class="g3_1" />
<path d="M561.3,492.4c7.6,3.1,16.2,-.6,19.3,-8.1C583.7,476.7,580,468,572.5,465c-7.6,-3.1,-16.3,.6,-19.3,8.1c-3.1,7.6,.5,16.2,8.1,19.3Z" class="g3_1" />
<path d="M328.7,398.1c7.5,3,16.2,-.6,19.2,-8.2c3.1,-7.6,-.5,-16.2,-8.1,-19.3c-7.6,-3,-16.2,.6,-19.3,8.2c-3.1,7.6,.6,16.2,8.2,19.3Z" class="g3_1" />
<path d="M415.3,310.1c-3.2,-7.5,-11.9,-11,-19.4,-7.8c-7.5,3.1,-11.1,11.8,-7.9,19.4c3.2,7.5,11.9,11,19.4,7.8c7.6,-3.2,11.1,-11.8,7.9,-19.4Z" class="g3_1" />
<path d="M513.1,541.4c-3.2,-7.6,-11.9,-11.1,-19.4,-7.9c-7.5,3.2,-11.1,11.9,-7.9,19.4c3.2,7.5,11.9,11,19.4,7.9c7.6,-3.2,11.1,-11.9,7.9,-19.4Z" class="g3_1" />
<path d="M571.9,396.3c7.6,-3.2,11.1,-11.9,7.9,-19.4c-3.2,-7.6,-11.9,-11.1,-19.4,-7.9c-7.5,3.2,-11,11.8,-7.9,19.4c3.2,7.5,11.9,11,19.4,7.9Z" class="g3_1" />
<path d="M340.7,494c7.5,-3.1,11.1,-11.8,7.9,-19.4c-3.2,-7.5,-11.9,-11,-19.4,-7.8c-7.5,3.2,-11.1,11.9,-7.9,19.4c3.2,7.5,11.9,11,19.4,7.8Z" class="g3_1" />
<path d="M532.2,335c4.5,-6.8,2.7,-16,-4.1,-20.5c-6.9,-4.5,-16,-2.6,-20.6,4.2c-4.5,6.8,-2.6,16,4.2,20.5c6.8,4.5,16,2.6,20.5,-4.2Z" class="g3_1" />
<path d="M393.6,544.3c4.5,-6.8,2.6,-16,-4.2,-20.5c-6.8,-4.5,-16,-2.6,-20.5,4.2c-4.5,6.8,-2.6,16,4.2,20.5c6.8,4.5,16,2.7,20.5,-4.2Z" class="g3_1" />
<path d="M547.1,513.2c6.8,4.5,15.9,2.6,20.5,-4.2c4.5,-6.8,2.6,-16,-4.2,-20.5c-6.8,-4.5,-16,-2.7,-20.5,4.2c-4.5,6.8,-2.7,16,4.2,20.5Z" class="g3_1" />
<path d="M337.7,374.5c6.9,4.5,16,2.7,20.6,-4.1c4.5,-6.9,2.6,-16,-4.2,-20.5c-6.8,-4.6,-16,-2.7,-20.5,4.1c-4.5,6.8,-2.7,16,4.1,20.5Z" class="g3_1" />
<path d="M440.1,305.6c-1.6,-8.1,-9.5,-13.2,-17.5,-11.6c-8,1.6,-13.2,9.4,-11.5,17.4c1.6,8,9.4,13.2,17.4,11.6c8,-1.6,13.2,-9.4,11.6,-17.4Z" class="g3_1" />
<path d="M490.1,551.6c-1.7,-8,-9.5,-13.2,-17.5,-11.6c-8,1.7,-13.2,9.5,-11.6,17.5c1.7,8,9.5,13.2,17.5,11.5c8,-1.6,13.2,-9.4,11.6,-17.4Z" class="g3_1" />
<path d="M576.5,421c8,-1.6,13.2,-9.4,11.6,-17.4c-1.6,-8,-9.4,-13.2,-17.5,-11.6c-8,1.7,-13.1,9.5,-11.5,17.5c1.6,8,9.4,13.2,17.4,11.5Z" class="g3_1" />
<path d="M330.5,471c8,-1.6,13.2,-9.4,11.5,-17.5c-1.6,-8,-9.4,-13.1,-17.4,-11.5c-8,1.6,-13.2,9.4,-11.6,17.4c1.7,8.1,9.5,13.2,17.5,11.6Z" class="g3_1" />
<path d="M489.4,311.2c1.6,-8,-3.6,-15.8,-11.6,-17.3c-8,-1.6,-15.8,3.6,-17.4,11.6c-1.6,8,3.6,15.8,11.6,17.4c8.1,1.6,15.8,-3.6,17.4,-11.7Z" class="g3_1" />
<path d="M440.7,557.5c1.6,-8,-3.6,-15.8,-11.6,-17.4c-8,-1.5,-15.8,3.7,-17.4,11.7c-1.6,8,3.6,15.8,11.6,17.4c8.1,1.6,15.8,-3.6,17.4,-11.7Z" class="g3_1" />
<path d="M570.8,470.4c8.1,1.6,15.8,-3.7,17.4,-11.7c1.6,-8,-3.6,-15.8,-11.6,-17.4c-8.1,-1.5,-15.8,3.7,-17.4,11.7c-1.6,8,3.6,15.8,11.6,17.4Z" class="g3_1" />
<path d="M324.5,421.7c8.1,1.6,15.8,-3.6,17.4,-11.7c1.6,-8,-3.6,-15.8,-11.6,-17.4c-8,-1.5,-15.8,3.7,-17.4,11.7c-1.6,8,3.6,15.8,11.6,17.4Z" class="g3_1" />
<path d="M393,319c-4.5,-6.8,-13.8,-8.6,-20.6,-4.1c-6.7,4.6,-8.5,13.8,-4,20.6c4.6,6.7,13.8,8.6,20.5,4c6.8,-4.5,8.6,-13.7,4.1,-20.5Z" class="g3_1" />
<path d="M532.7,527.6C528.2,520.8,519,519,512.2,523.5c-6.8,4.6,-8.6,13.8,-4.1,20.5c4.6,6.8,13.8,8.7,20.6,4.1c6.7,-4.5,8.6,-13.7,4,-20.5Z" class="g3_1" />
<path d="M563.1,374c6.8,-4.6,8.6,-13.8,4.1,-20.6c-4.6,-6.8,-13.8,-8.6,-20.6,-4c-6.8,4.5,-8.6,13.7,-4,20.5c4.5,6.8,13.7,8.6,20.5,4.1Z" class="g3_1" />
<path d="M354.5,513.7c6.8,-4.6,8.6,-13.8,4.1,-20.6c-4.6,-6.8,-13.8,-8.6,-20.6,-4c-6.8,4.5,-8.6,13.7,-4,20.5c4.5,6.8,13.7,8.6,20.5,4.1Z" class="g3_1" />
<text transform="matrix(1.19, 0, 0, 1, 356, 420)" class="s1_1">G</text>
<path d="M354.6,462.5c10.7,3,29.4,.2,53.6,-15.2c35.9,-24.8,33.3,-61,33.3,-61l-12.6,10.4c-3.3,2.1,-35.5,30.2,-53.9,12.7C364.3,399.2,361.5,380.8,370.4,364c12,13.4,46.1,17.1,72.6,4.7c7.1,-3.3,12.7,-8.8,15.2,-15.3c3.5,-9.1,-1.2,-15.4,-6.9,-19.6c-6.3,-4.5,-14.5,-6.6,-22.7,-6.4c-26.7,.4,-47.5,12.9,-59.5,28.6c-2.6,-6.2,-1,-11.7,-1,-11.7c-2.5,5.3,-2.6,10.1,-1,14.3c-12,17.2,-13.8,37.6,-2.4,50.2c24,26.3,66.9,-6.7,66.9,-6.7c-3,14.3,-12.6,36.7,-42.9,50.9c-15.6,7.2,-25.3,7.4,-31,5.9c-4.7,-1.3,-8.3,-3.8,-2.9,-9.1c19.1,-17.8,59.8,-20,59.8,-20c0,0,-26.5,-.4,-49.1,8.4c-9.7,3.5,-14.5,7.6,-16.9,11.1c-3.5,4.9,-.4,11.2,6,13.2ZM408.7,333.6c42.3,-15.3,58.4,17.6,24,32.6c-7.1,3.1,-14.9,4.7,-22.9,4.8c-21.7,.6,-32.3,-4.3,-37.6,-10.1c6.7,-10.8,18.6,-20.8,36.5,-27.3Z" class="g4_1" />
<text transform="matrix(1.19, 0, 0, 1, 447, 536)" class="s1_1">F</text>
<path d="M507.8,482.4v-.2v.2Zm-52.1,7c6.7,3,14.9,2.9,21.7,-.1c8.9,-4.1,13.1,-11.7,10.8,-16.6c0,0,-2.7,13.5,-18.7,15c-6.3,.1,-10.6,-3.1,-13.2,-7.4c-3.9,-6.9,-2,-15.3,3.8,-21.2c8,-8,23.8,-15.8,51.6,-8.8c10.4,2.7,18.4,5,25.2,6.9c-1.6,1.6,-3.4,3.6,-5,6c-7,9.3,-12,16.2,-16.7,24.1c-8.6,-2.1,-11.2,-6.2,-11.7,-7.1c.8,1.8,2.4,3.6,4,4.9c1.9,1.8,4.2,3,6.7,4.1c-2.8,4.9,-5.6,10.4,-8.8,17.1c-8.5,18.7,-24.2,37.9,-43.1,36c-19,-2,-15.5,-16.7,-12.3,-21.5c0,0,6.6,-13.6,20.6,-17.4c3.5,-.9,7.3,-.9,10.6,.2c2.4,.9,4.8,2.4,5.4,5.1c1.3,5.3,-4.4,12.5,-11.6,13.2c-1.6,.2,-3.1,0,-4.4,-.6c-5.7,-2.7,-1.6,-10,.8,-11.3c0,0,-7.5,3.1,-5.3,9.4c2.5,7.4,17.4,4.7,21.3,-4c3.6,-7.9,-2.3,-18.1,-17.5,-15.3c-3.5,.7,-6.9,1.9,-9.9,3.8c-6,3.6,-15.8,11.2,-16.4,23.3c-.9,17.5,24.4,23.1,45.5,8.5c20.9,-14.5,25.7,-30.5,30.4,-38.5c.7,-1.3,1.7,-3.4,2.7,-5.9h.6c20.2,2.3,26.8,-9.4,26.8,-9.4c-3.1,2.4,-10.2,7.2,-26,6.4c3.6,-8.4,9,-20.2,17.1,-30.2c26.7,6.2,39.2,4.4,39.3,-.9c.2,-5.5,-6.7,-6.3,-6.7,-6.3c3.8,1.5,10.2,7.2,-2.7,8.4c-9.2,.9,-24.1,-2.4,-28.2,-3.4c3.5,-4,7.3,-7.4,11.9,-10.3c0,0,-6.6,.9,-15.2,9.3c-3.7,-1.2,-7.6,-2.6,-11.9,-4.1c-58.9,-21.3,-81.6,5.9,-83.5,17.2c-1.3,8.4,2.5,17.2,12,21.4Z" class="g4_1" />
<text x="462" y="424" class="s2_1">&amp;</text>
<path d="M468.4,423.9c-2.6,0,-4.7,-1.4,-5.4,-3.7c-1.2,-4,5,-7.4,5,-7.5c.1,0,.2,0,.4,-.1l.2,-.2l-.1,-.3c-.3,-.4,-.6,-.8,-.8,-1.1c-1.1,-1.9,-1.7,-4,-1.6,-5.9c.2,-3.3,1.6,-5,4.6,-5.2h.4c.4,0,.9,0,1.2,.1c1.3,.2,2.3,1,3,2c.6,1.1,.8,2.4,.5,3.8c-.6,1.9,-2,3.7,-4.6,5.6l-.2,.2l.2,.3c1.4,1.7,3.2,3.8,4.9,5.6l.2,.3l.2,-.3c1.8,-2.4,3.2,-4.8,3.5,-5.5h.6c-1,1.9,-2.5,4.3,-3.8,6l-.1,.2l.2,.2c1.1,1.1,2.6,2.6,3.8,3.4c.8,.6,1.5,.9,2.3,.9c1.4,0,2.3,-.9,2.6,-1.4l.2,.2c-.1,.2,-.3,.4,-.4,.6c-1,1,-2.5,1.6,-3.9,1.6c-1.2,0,-2.2,-.4,-3.1,-1c-.9,-.7,-1.9,-1.5,-2.8,-2.3l-.3,-.3l-.2,.3c-.5,.7,-1.1,1.2,-1.6,1.7c-1.6,1.2,-3.4,1.8,-5.1,1.8Zm.3,-10.7c-3.3,2.1,-3.9,4.9,-3.3,6.8c.5,1.7,2,3,3.8,3c.6,0,1.2,-.2,1.8,-.5c1.1,-.4,2.3,-1.4,3.6,-2.7l.2,-.2l-.2,-.2c-2.5,-2.3,-4.3,-4.6,-5.4,-6.2l-.1,-.2l-.4,.2Zm2.2,-12.4c-1.5,0,-2.7,1,-3.1,2.5c-.4,1.7,.2,3.6,.8,4.9c.3,.6,.9,1.5,1.7,2.5l.2,.3l.3,-.2c1.3,-1.2,3,-3,3.3,-5.1c.2,-1.3,.1,-2.3,-.3,-3c-.6,-1.2,-1.7,-1.9,-2.9,-1.9Z" class="g4_1" />


<!-- Any embedded fonts defined here -->
<style type="text/css" ><![CDATA[

@font-face {
	font-family: Laylantia_5;
	src: url("fonts/Laylantia_5.woff") format("woff");
}

]]></style>

</svg>
